<?xml version="1.0" standalone="no"?>
<!DOCTYPE svg PUBLIC "-//W3C//DTD SVG 20010904//EN"
 "http://www.w3.org/TR/2001/REC-SVG-20010904/DTD/svg10.dtd">
<svg version="1.0" xmlns="http://www.w3.org/2000/svg"
 width="1024.000000pt" height="1024.000000pt" viewBox="0 0 1024.000000 1024.000000"
 preserveAspectRatio="xMidYMid meet">

<g transform="translate(0.000000,1024.000000) scale(0.100000,-0.100000)"
fill="#000000" stroke="none">
<path d="M0 5120 l0 -5120 5120 0 5120 0 0 5120 0 5120 -5120 0 -5120 0 0
-5120z m4490 4540 c0 -5 -5 -10 -11 -10 -5 0 -7 5 -4 10 3 6 8 10 11 10 2 0 4
-4 4 -10z m206 -95 c-11 -8 -24 -15 -30 -15 -5 0 -1 7 10 15 10 8 24 14 29 14
6 0 1 -6 -9 -14z m-86 1 c0 -2 -7 -7 -16 -10 -8 -3 -12 -2 -9 4 6 10 25 14 25
6z m-105 -61 c-8 -21 -18 -35 -22 -31 -4 4 1 22 12 41 24 45 31 38 10 -10z
m-61 -11 c-24 -25 -46 -55 -49 -65 -8 -26 -21 -24 -29 4 -9 33 -7 47 5 47 6 0
8 -9 4 -22 -5 -16 8 -8 44 30 62 64 84 70 25 6z m221 6 c-10 -11 -20 -18 -23
-15 -3 3 3 14 13 25 10 11 20 18 23 15 3 -3 -3 -14 -13 -25z m-30 -74 c-30
-28 -50 -34 -42 -13 2 6 10 11 16 9 7 -1 10 2 6 8 -3 6 4 14 17 19 33 13 34 6
3 -23z m882 -22 c-5 -5 -77 35 -77 42 0 3 18 -5 41 -16 23 -12 39 -24 36 -26z
m-472 26 c3 -5 -1 -10 -10 -10 -9 0 -13 5 -10 10 3 6 8 10 10 10 2 0 7 -4 10
-10z m455 -102 c0 -17 -10 -6 -42 45 -47 74 -47 81 1 17 22 -30 41 -58 41 -62z
m41 75 c-9 -16 -10 -14 -11 12 0 21 3 26 11 18 8 -8 8 -16 0 -30z m139 -66
c-3 -2 -23 17 -44 42 l-40 46 44 -42 c24 -23 42 -44 40 -46z m-70 33 c14 -27
6 -25 -25 5 -14 14 -25 28 -25 31 0 11 40 -18 50 -36z m-1277 -5 c-5 -25 -7
-27 -13 -10 -6 18 -8 18 -20 -5 -20 -38 -25 -205 -6 -263 14 -48 14 -49 -5
-31 -41 37 -31 -2 35 -130 84 -161 91 -208 39 -238 -28 -17 -37 -18 -71 -7
-64 19 -134 78 -162 137 -14 28 -28 52 -31 52 -4 0 -12 -20 -19 -45 -13 -46
-10 -212 5 -247 20 -50 -142 16 -193 77 l-31 38 -6 -36 c-16 -84 27 -216 104
-317 22 -30 41 -58 41 -63 0 -4 -25 -31 -56 -60 -54 -50 -84 -92 -84 -119 0
-7 9 1 20 19 25 42 89 88 151 108 82 28 79 11 -6 -33 -106 -55 -134 -81 -156
-150 -10 -31 -18 -51 -18 -43 -1 8 -3 12 -5 10 -3 -3 -1 -21 3 -41 11 -45 6
-51 -25 -31 -28 18 -29 14 -9 -34 23 -54 18 -60 -16 -17 -30 38 -47 54 -61 54
-11 0 -1 -69 13 -87 11 -15 9 -14 -11 2 -14 11 -32 27 -40 35 -13 14 -18 12
-47 -18 -18 -18 -27 -32 -20 -30 22 4 131 -33 182 -62 28 -16 79 -54 114 -84
36 -31 67 -56 71 -56 3 0 14 -15 24 -32 l19 -33 -35 35 c-104 106 -193 161
-321 200 -50 16 -112 35 -136 44 -60 22 -64 19 -11 -10 37 -21 40 -24 15 -18
-16 4 -50 10 -74 13 -51 7 -66 28 -24 34 20 3 15 4 -15 6 -54 1 -145 -24 -193
-55 -83 -52 -138 -162 -140 -278 -1 -58 -1 -59 -11 -26 -14 47 5 152 37 206
34 58 118 131 175 151 27 9 46 22 43 27 -4 5 1 7 10 3 10 -3 17 -3 17 2 0 4 7
8 15 8 8 0 15 -4 15 -9 0 -4 10 -8 23 -8 20 0 19 2 -8 16 -40 21 -40 20 -16
45 12 13 21 28 21 33 0 13 50 37 61 30 5 -3 9 0 9 5 0 6 -5 11 -11 11 -6 0 -9
7 -5 15 3 8 0 15 -7 15 -7 1 -1 10 13 21 23 19 23 21 6 31 -17 9 -17 11 2 24
11 8 29 11 39 8 17 -6 17 -6 -1 8 -10 8 -16 20 -12 26 4 7 2 12 -4 12 -7 0
-10 6 -7 13 2 6 9 11 15 10 6 -2 14 6 17 17 8 25 21 26 34 3 7 -13 10 -14 11
-4 0 8 8 20 18 28 9 7 13 13 7 12 -21 -3 -35 1 -35 11 0 6 9 10 20 10 11 0 20
7 20 15 0 8 -4 15 -10 15 -5 0 -10 5 -10 10 0 6 7 10 15 10 14 0 20 22 17 63
-1 9 2 17 7 17 6 0 11 12 13 28 2 15 7 25 12 24 12 -5 29 26 21 38 -3 6 -16
10 -28 10 -16 0 -18 3 -8 9 10 6 11 13 2 29 -14 26 -14 32 -1 32 6 0 15 -10
20 -22 5 -13 9 -17 9 -10 1 7 6 10 11 7 16 -10 12 11 -5 25 -8 7 -15 19 -15
27 0 12 7 14 30 9 28 -5 31 -3 37 24 3 17 10 30 15 30 6 0 7 7 4 16 -5 14 -1
16 22 11 31 -6 62 6 43 17 -14 9 -14 26 0 26 15 0 39 26 32 34 -4 3 -1 6 6 6
7 0 9 5 6 10 -4 6 -11 8 -16 5 -5 -4 -9 -1 -9 4 0 10 17 15 48 14 6 -1 12 3
12 8 0 15 60 40 80 34 21 -7 26 4 11 21 -5 5 -7 22 -4 37 7 36 42 34 60 -3 7
-14 13 -19 13 -12 0 6 7 12 15 12 8 0 15 7 15 15 0 8 -5 15 -11 15 -5 0 -7 5
-3 12 6 9 9 9 12 0 5 -16 23 -16 20 1 -2 6 5 11 15 9 10 -2 17 3 17 13 0 8 7
15 15 15 8 0 15 -7 15 -15 0 -8 5 -15 10 -15 6 0 10 3 10 8 0 4 11 12 25 18
21 10 25 9 31 -8 3 -11 7 -18 9 -16 2 2 -2 23 -10 46 -16 47 -11 74 12 65 14
-5 15 3 9 63 -10 103 20 241 50 230 8 -3 14 0 14 6 0 6 2 9 4 7 2 -2 2 -17 -1
-34z m292 -5 c-11 -12 -14 -26 -10 -39 4 -13 2 -21 -5 -21 -6 0 -15 -11 -20
-25 -9 -22 -30 -35 -30 -18 0 38 70 159 78 134 2 -7 -4 -21 -13 -31z m1137
-75 c10 -30 13 -31 26 -18 14 14 17 13 29 -2 7 -10 20 -43 29 -74 9 -31 20
-61 24 -66 5 -6 12 -35 16 -65 4 -30 10 -59 14 -65 9 -11 9 -85 0 -85 -3 0 -6
-9 -6 -21 0 -18 2 -18 12 -5 15 21 26 20 23 -1 -3 -39 1 -64 12 -58 6 4 8 14
5 22 -10 26 4 33 24 13 24 -24 25 -30 6 -30 -9 0 -12 -7 -9 -19 3 -11 11 -17
18 -14 8 2 11 11 8 19 -8 21 15 17 26 -5 11 -21 58 -23 53 -2 -1 7 2 9 9 6 8
-5 8 -10 0 -18 -16 -16 -13 -31 3 -18 11 9 15 8 20 -4 3 -9 11 -13 17 -9 8 4
9 -3 5 -23 -4 -18 -1 -40 9 -59 8 -16 15 -23 15 -16 0 14 56 17 65 2 3 -5 -3
-10 -14 -10 -12 0 -21 -4 -21 -10 0 -5 14 -10 30 -10 17 0 30 5 30 13 0 9 2 9
8 -1 5 -7 16 -10 27 -6 13 5 16 3 13 -7 -3 -9 6 -18 26 -24 24 -8 31 -16 32
-35 0 -14 3 -31 8 -38 5 -8 -1 -12 -18 -12 -21 0 -26 -5 -25 -22 0 -13 3 -17
6 -10 11 27 39 10 34 -20 0 -5 9 -8 20 -8 18 0 19 -2 9 -15 -14 -17 -9 -18 46
-15 33 1 53 -13 34 -25 -6 -4 -17 -1 -25 5 -15 13 -45 7 -45 -8 0 -5 10 -8 22
-8 14 1 23 -5 23 -14 0 -10 10 -15 28 -15 18 1 26 -3 23 -12 -8 -21 18 -15 32
7 11 19 14 19 36 5 14 -10 27 -12 30 -6 7 11 46 3 46 -10 0 -9 -22 -13 -47
-10 -12 2 -10 -29 2 -49 4 -6 -1 -22 -10 -36 -14 -22 -14 -26 -1 -39 8 -8 22
-12 30 -9 9 3 16 1 16 -4 0 -6 -8 -12 -17 -15 -14 -3 -10 -7 13 -16 41 -16 52
-57 21 -83 -19 -17 -19 -18 -1 -19 17 -1 17 -2 2 -6 -10 -2 -18 -9 -18 -14 0
-16 24 -36 38 -31 6 2 12 -1 12 -7 0 -7 -16 -8 -45 -4 -31 4 -45 2 -45 -6 0
-6 12 -11 26 -11 23 0 25 -3 19 -30 -4 -17 -3 -30 2 -29 20 4 23 -2 9 -17 -9
-8 -14 -19 -11 -24 3 -5 1 -11 -5 -15 -17 -10 -11 -25 10 -25 21 0 27 -15 10
-25 -5 -3 -10 -1 -10 6 0 7 -8 5 -20 -6 -20 -18 -28 -41 -11 -31 5 4 16 3 25
0 12 -5 13 -9 3 -25 -6 -10 -17 -19 -23 -19 -7 0 -14 -7 -18 -15 -5 -13 -3
-13 17 0 14 9 27 11 36 5 12 -7 12 -12 -2 -34 -20 -30 -21 -37 -5 -34 7 2 12
-3 13 -11 0 -15 25 -29 25 -14 0 4 11 8 24 8 16 0 22 -4 18 -14 -3 -9 -1 -12
6 -7 7 4 12 4 12 1 0 -11 -28 -35 -41 -35 -9 0 -8 -5 4 -17 14 -14 19 -15 29
-4 11 10 9 11 -7 5 -11 -4 -17 -4 -14 0 4 4 21 9 38 11 31 4 102 34 289 121
51 24 98 44 103 44 6 0 8 9 4 19 -9 28 8 33 81 25 43 -4 61 -10 53 -15 -9 -5
7 -9 42 -9 52 0 207 -38 249 -60 17 -9 16 -12 -10 -40 -33 -36 -40 -37 -64 -8
-19 22 -20 22 -27 3 -4 -11 -8 -14 -8 -7 -1 10 -6 10 -21 2 -11 -6 -20 -7 -19
-3 3 20 -2 24 -18 12 -13 -11 -17 -11 -21 -1 -6 18 -71 44 -117 47 -23 1 -51
5 -63 9 -14 5 -22 3 -22 -4 0 -6 -5 -8 -10 -5 -6 4 -8 11 -5 16 4 5 2 9 -4 9
-5 0 -13 -5 -16 -10 -5 -9 -227 -120 -239 -120 -2 0 -64 -29 -137 -64 -207
-99 -668 -316 -724 -341 -27 -13 -104 -49 -170 -80 -115 -55 -221 -105 -440
-210 -55 -26 -192 -92 -305 -146 -202 -98 -230 -109 -230 -89 0 12 89 57 365
185 299 138 296 136 231 177 -27 17 -28 19 -6 12 52 -14 71 -24 65 -34 -3 -5
-1 -10 5 -10 12 0 721 330 877 409 l95 47 -40 18 c-29 13 -53 17 -89 12 -35
-4 -55 -2 -73 10 -15 9 -18 13 -6 10 10 -4 42 -3 70 0 28 4 44 9 36 12 -8 2
-36 22 -62 43 -53 44 -58 46 -58 22 0 -9 -13 3 -29 28 -34 53 -81 84 -101 66
-7 -7 0 10 15 37 27 46 28 52 18 109 -9 55 -7 68 15 132 16 44 23 79 19 95
-10 40 -68 122 -99 139 -33 19 -35 31 -9 53 48 41 101 170 101 247 l0 35 -27
-26 c-35 -32 -85 -58 -114 -58 -18 0 -20 4 -15 28 4 15 10 63 13 107 4 62 1
89 -11 119 l-17 40 -20 -40 c-49 -92 -103 -139 -148 -127 l-22 6 23 25 23 25
-27 -18 c-16 -9 -28 -13 -28 -7 0 6 5 14 11 18 6 3 -2 14 -20 25 -44 27 -48
57 -16 136 43 108 56 156 43 164 -6 4 -11 38 -12 79 -1 57 -5 73 -18 81 -12 7
-18 22 -18 44 0 18 -5 46 -12 62 l-11 28 -6 -35 -6 -35 -29 50 c-16 28 -35 60
-42 72 -20 32 -17 39 6 18 11 -10 25 -33 32 -50z m-241 -6 c16 -18 28 -34 25
-36 -5 -6 -94 45 -102 58 -3 5 7 9 21 9 17 0 38 -11 56 -31z m1492 1 c7 -26
-5 -33 -28 -16 -16 11 -17 15 -4 29 17 18 25 15 32 -13z m-2106 14 c-3 -3 -12
-4 -19 -1 -8 3 -5 6 6 6 11 1 17 -2 13 -5z m-272 -80 c7 -8 16 -36 20 -64 4
-27 9 -50 12 -50 2 0 12 7 21 16 14 15 17 15 28 0 9 -13 13 -14 17 -4 4 10 8
10 16 -2 10 -13 12 -13 21 0 6 10 10 11 10 3 0 -7 3 -12 8 -11 17 4 72 -14 66
-23 -3 -5 4 -9 15 -9 12 0 21 4 21 9 0 14 52 23 63 12 8 -8 4 -11 -13 -11 -17
0 -21 -3 -13 -11 8 -8 17 -8 33 1 23 12 122 10 153 -4 12 -6 17 -4 17 7 0 21
20 26 49 11 25 -13 46 -10 36 7 -8 12 8 12 21 -1 7 -7 17 -3 32 10 l22 21 0
-23 c0 -21 0 -21 15 -2 9 12 14 14 15 5 0 -7 6 -11 13 -8 8 3 21 -7 31 -24 18
-31 40 -40 29 -13 -5 14 -3 15 15 5 12 -7 22 -17 22 -23 0 -6 8 -4 18 5 22 20
46 23 36 5 -4 -7 1 -5 11 4 16 15 17 21 7 43 -16 35 -15 51 4 70 15 14 14 19
-10 55 -14 22 -23 40 -18 40 14 0 82 -99 82 -119 0 -23 -16 -36 -25 -21 -3 5
-13 10 -21 10 -11 0 -8 -10 12 -39 29 -44 33 -90 14 -136 l-12 -30 -17 45 -16
45 -3 -47 c-3 -39 -8 -51 -32 -68 l-29 -20 -3 21 c-2 17 -12 9 -50 -44 -67
-91 -65 -90 -136 -72 -46 12 -74 14 -112 7 l-51 -9 -40 53 c-26 35 -60 65 -95
85 -30 18 -63 43 -72 57 l-17 26 -5 -34 c-7 -49 -31 -49 -83 2 -31 30 -47 54
-52 80 l-7 38 -18 -23 c-25 -30 -41 -12 -48 54 l-5 52 -18 -24 -17 -23 -6 34
c-8 44 -4 92 9 106 7 9 11 5 13 -14 2 -14 10 -31 17 -38z m-545 26 c0 -5 -4
-10 -10 -10 -5 0 -10 5 -10 10 0 6 5 10 10 10 6 0 10 -4 10 -10z m3060 -10 c0
-5 -7 -10 -15 -10 -8 0 -15 5 -15 10 0 6 7 10 15 10 8 0 15 -4 15 -10z m-3252
-51 c4 -20 -28 -58 -34 -41 -3 6 -12 12 -20 12 -17 0 -17 5 -4 31 12 22 53 20
58 -2z m-537 -14 c5 3 6 -1 2 -10 -5 -13 -7 -14 -14 -3 -5 7 -8 20 -8 28 1 11
3 10 6 -3 2 -9 9 -15 14 -12z m-31 6 c0 -5 3 -17 7 -27 4 -11 3 -15 -4 -11
-14 9 -24 47 -12 47 5 0 9 -4 9 -9z m1545 -41 c3 -5 -1 -10 -10 -10 -9 0 -13
5 -10 10 3 6 8 10 10 10 2 0 7 -4 10 -10z m-855 -20 c0 -5 -4 -10 -9 -10 -6 0
-13 5 -16 10 -3 6 1 10 9 10 9 0 16 -4 16 -10z m1480 -35 c0 -8 -2 -15 -4 -15
-2 0 -6 7 -10 15 -3 8 -1 15 4 15 6 0 10 -7 10 -15z m69 -12 c0 -25 -1 -26 -9
-8 -12 27 -12 35 0 35 6 0 10 -12 9 -27z m-3116 0 c-7 -2 -21 -2 -30 0 -10 3
-4 5 12 5 17 0 24 -2 18 -5z m1187 -3 c0 -5 -5 -10 -11 -10 -5 0 -7 5 -4 10 3
6 8 10 11 10 2 0 4 -4 4 -10z m1057 -32 c-3 -8 -6 -5 -6 6 -1 11 2 17 5 13 3
-3 4 -12 1 -19z m1368 12 c3 -5 -1 -10 -9 -10 -9 0 -16 5 -16 10 0 6 4 10 9
10 6 0 13 -4 16 -10z m-3501 -39 c4 -5 -3 -7 -13 -4 -29 7 -85 -14 -112 -43
-32 -34 -82 -54 -134 -54 l-43 0 26 30 c19 22 29 27 39 19 7 -6 26 -8 42 -4
17 4 34 6 38 6 5 0 16 8 26 17 39 35 118 55 131 33z m1506 5 c0 -3 -4 -8 -10
-11 -5 -3 -10 -1 -10 4 0 6 5 11 10 11 6 0 10 -2 10 -4z m2377 -22 c7 -18 -17
-38 -31 -24 -11 11 -1 40 14 40 6 0 13 -7 17 -16z m-2397 -14 c0 -5 -2 -10 -4
-10 -3 0 -8 5 -11 10 -3 6 -1 10 4 10 6 0 11 -4 11 -10z m4080 -6 c0 -17 -22
-14 -28 4 -2 7 3 12 12 12 9 0 16 -7 16 -16z m-599 -53 c26 -26 29 -36 29 -94
0 -50 5 -70 21 -91 20 -25 20 -26 1 -26 -25 0 -135 71 -156 101 -25 36 -20 76
13 110 16 16 37 29 46 29 9 0 30 -13 46 -29z m-2563 -24 c19 -19 23 -30 15
-38 -7 -7 -15 -6 -27 6 -22 23 -78 37 -118 30 -61 -10 -133 -38 -170 -67 -49
-37 -49 -22 -1 21 100 89 238 111 301 48z m-1043 23 c-3 -5 -10 -10 -16 -10
-5 0 -9 5 -9 10 0 6 7 10 16 10 8 0 12 -4 9 -10z m1701 -20 c23 -11 50 -30 60
-41 14 -16 6 -14 -40 10 -32 17 -65 31 -75 31 -23 0 -47 -17 -38 -27 5 -4 12
-1 17 7 15 24 13 -27 -2 -53 -7 -12 -20 -42 -28 -67 -30 -89 -67 -47 -58 65 2
25 1 45 -2 45 -12 -1 -28 -18 -58 -60 -39 -56 -140 -155 -149 -147 -3 4 18 31
48 60 30 29 69 75 87 101 23 34 47 54 85 71 64 30 98 31 153 5z m-1855 -23
c-13 -13 -26 -3 -16 12 3 6 11 8 17 5 6 -4 6 -10 -1 -17z m-731 -37 c0 -5 -7
-10 -16 -10 -8 0 -12 5 -9 10 3 6 10 10 16 10 5 0 9 -4 9 -10z m785 0 c-3 -5
-11 -10 -16 -10 -6 0 -7 5 -4 10 3 6 11 10 16 10 6 0 7 -4 4 -10z m-445 -5 c0
-3 -15 -11 -32 -19 l-33 -14 27 -1 c24 -1 29 -7 42 -50 35 -117 -35 -210 -176
-235 l-38 -7 0 47 c0 39 6 54 37 92 33 41 40 56 42 103 1 21 58 77 84 82 35 7
47 7 47 2z m2866 -62 c-7 -7 -26 7 -26 19 0 6 6 6 15 -2 9 -7 13 -15 11 -17z
m-1081 -54 c22 -23 33 -38 25 -34 -29 16 -100 76 -100 86 0 16 32 -6 75 -52z
m165 40 c0 -14 -27 -16 -65 -4 l-40 12 52 -1 c29 -1 53 -4 53 -7z m846 -18
c-4 -5 0 -11 6 -14 7 -2 9 -8 5 -13 -9 -10 -28 16 -21 28 3 4 7 8 10 8 3 0 3
-4 0 -9z m-2586 -76 c0 -8 -4 -15 -10 -15 -5 0 -10 7 -10 15 0 8 5 15 10 15 6
0 10 -7 10 -15z m1246 -1 c56 -27 96 -113 73 -157 -41 -76 -113 -127 -180
-127 -40 0 -96 25 -119 52 -23 28 -26 93 -5 134 21 43 67 84 111 99 52 19 79
18 120 -1z m1484 6 c0 -5 -5 -10 -11 -10 -5 0 -7 5 -4 10 3 6 8 10 11 10 2 0
4 -4 4 -10z m-620 -20 c98 -27 160 -181 99 -246 -61 -65 -201 7 -224 113 -10
47 11 101 49 124 36 22 31 22 76 9z m-274 -110 c92 -44 106 -57 70 -66 -14 -3
-24 -11 -23 -18 1 -6 -8 -10 -21 -8 -16 2 -25 -4 -32 -22 -5 -14 -18 -31 -30
-38 -11 -7 -20 -19 -20 -26 0 -7 -4 -11 -9 -8 -5 3 -8 -2 -7 -12 0 -9 -9 -21
-22 -27 -20 -9 -23 -16 -20 -55 2 -32 -1 -44 -9 -42 -7 1 -13 -5 -13 -13 0 -9
6 -12 15 -9 9 4 15 0 15 -9 0 -8 -6 -18 -12 -20 -7 -3 -3 -6 10 -6 18 -1 22
-5 17 -20 -4 -15 0 -21 17 -24 13 -2 -17 -5 -67 -6 -100 -2 -198 -12 -384 -40
-146 -21 -271 -27 -271 -12 0 6 14 11 30 11 17 0 39 6 50 12 16 10 24 10 40 0
11 -7 20 -9 20 -4 0 4 11 19 23 33 13 13 27 31 30 39 4 8 6 0 4 -17 -3 -27 -1
-31 11 -21 7 7 12 22 9 35 -2 13 0 23 4 23 5 0 9 -11 9 -25 0 -14 5 -25 11
-25 6 0 8 8 4 19 -8 26 4 51 26 51 23 0 24 9 4 24 -12 9 -8 11 22 11 29 0 40
-5 45 -20 4 -15 6 -13 7 12 1 29 -1 31 -26 27 -20 -3 -24 -2 -13 5 8 5 38 8
67 6 62 -5 86 2 79 21 -3 8 6 15 24 19 15 3 36 17 46 31 10 13 28 24 40 24 42
0 47 65 8 99 -20 18 -34 22 -57 17 l-31 -6 24 25 c35 37 90 48 205 41 97 -6
99 -5 60 9 -47 18 -107 21 -187 8 -56 -9 -57 -9 -40 10 9 11 26 23 37 28 38
17 126 0 211 -41z m2944 20 c-159 -12 -200 -31 -215 -97 -10 -49 -74 -140
-156 -223 -88 -89 -230 -186 -390 -268 l-116 -59 -125 1 c-123 2 -126 2 -177
35 -28 19 -50 36 -47 38 3 3 36 -9 73 -27 62 -30 76 -32 153 -31 69 2 98 8
160 33 113 47 304 165 380 235 61 56 72 73 105 155 42 106 49 116 116 159 68
43 128 57 239 57 l95 -1 -95 -7z m-4760 -10 c0 -5 -4 -10 -9 -10 -6 0 -13 5
-16 10 -3 6 1 10 9 10 9 0 16 -4 16 -10z m4978 -37 c34 -18 62 -36 62 -38 0
-5 -161 74 -170 83 -14 13 52 -14 108 -45z m-3281 31 c-3 -3 -12 -4 -19 -1 -8
3 -5 6 6 6 11 1 17 -2 13 -5z m-733 -129 c24 -37 73 -55 153 -56 62 -1 64 -2
28 -9 -37 -7 -62 -6 -122 6 -55 11 -116 100 -97 142 5 13 9 8 14 -20 4 -20 14
-48 24 -63z m-1149 75 c-3 -5 -11 -10 -16 -10 -6 0 -7 5 -4 10 3 6 11 10 16
10 6 0 7 -4 4 -10z m1569 -16 c3 -8 2 -12 -4 -9 -6 3 -10 10 -10 16 0 14 7 11
14 -7z m2422 -21 c17 -20 23 -37 20 -60 -2 -18 1 -30 5 -27 5 3 9 -2 9 -10 0
-9 -2 -16 -5 -16 -13 0 -83 50 -109 79 -20 21 -36 29 -48 25 -27 -8 -22 3 10
20 45 25 91 20 118 -11z m-906 13 c0 -11 -19 -15 -25 -6 -3 5 1 10 9 10 9 0
16 -2 16 -4z m564 -11 c3 -8 1 -15 -4 -15 -6 0 -10 7 -10 15 0 8 2 15 4 15 2
0 6 -7 10 -15z m1617 -12 c13 -16 12 -17 -3 -4 -10 7 -18 15 -18 17 0 8 8 3
21 -13z m-5311 -13 c0 -5 -5 -10 -11 -10 -5 0 -7 5 -4 10 3 6 8 10 11 10 2 0
4 -4 4 -10z m3150 -10 c0 -5 -4 -10 -10 -10 -5 0 -10 5 -10 10 0 6 5 10 10 10
6 0 10 -4 10 -10z m2373 -149 c38 -36 73 -74 78 -83 5 -9 -24 16 -64 56 -39
40 -97 94 -127 121 l-55 48 50 -38 c28 -21 81 -68 118 -104z m-3914 89 c-13
-11 -40 -29 -60 -40 -41 -22 -55 -46 -34 -58 13 -6 12 -10 -4 -24 -18 -15 -19
-14 -16 18 2 20 0 32 -6 28 -5 -3 -7 -9 -4 -14 3 -5 -6 -12 -20 -16 -16 -4
-24 -12 -21 -20 7 -18 -14 -30 -24 -14 -7 11 -13 10 -34 -3 -14 -10 -66 -35
-115 -56 -65 -28 -91 -35 -95 -26 -2 7 -25 16 -50 19 -49 8 -66 20 -39 30 9 4
20 1 24 -6 12 -19 116 -14 174 9 28 11 115 61 195 111 135 86 184 109 129 62z
m-1982 -26 c9 -23 -11 -38 -26 -20 -13 16 -7 36 10 36 5 0 12 -7 16 -16z
m4871 -11 c-4 -22 -48 -31 -48 -10 0 19 10 27 32 27 13 0 18 -6 16 -17z
m-3018 2 c0 -9 -85 -48 -130 -60 -25 -6 -56 -8 -70 -5 -19 5 -9 9 45 19 39 7
88 20 110 31 48 22 45 21 45 15z m-2660 -36 c0 -5 -7 -9 -15 -9 -15 0 -20 12
-9 23 8 8 24 -1 24 -14z m2237 -30 c43 -23 89 -45 103 -49 24 -8 24 -8 -5 -9
-16 -1 -42 5 -57 13 -23 12 -26 12 -21 0 4 -12 0 -14 -23 -8 -16 3 -39 13 -51
20 -12 8 -33 14 -47 14 -38 0 -80 21 -64 33 36 25 -60 -7 -100 -34 -43 -29
-45 -29 -23 -5 37 40 99 66 158 66 42 0 67 -8 130 -41z m633 10 c0 -14 -17
-10 -23 5 -4 10 -1 13 9 9 7 -3 14 -9 14 -14z m1993 -11 c6 -22 -9 -41 -28
-35 -5 2 -11 16 -13 30 -3 21 1 27 16 27 12 0 22 -9 25 -22z m-967 -26 c10 -6
30 -23 44 -38 l25 -28 -30 19 c-35 22 -99 21 -134 -2 -19 -12 -25 -13 -31 -2
-7 10 -12 10 -26 -2 -16 -13 -16 -12 -7 6 14 25 53 61 73 67 16 5 56 -4 86
-20z m1667 13 c-3 -9 -8 -14 -10 -11 -3 3 -2 9 2 15 9 16 15 13 8 -4z m-1146
-1 c-3 -3 -12 -4 -19 -1 -8 3 -5 6 6 6 11 1 17 -2 13 -5z m-3961 -25 c7 -12
-12 -29 -33 -29 -7 0 -13 9 -13 20 0 22 34 28 46 9z m4094 1 c0 -5 -7 -10 -15
-10 -8 0 -15 5 -15 10 0 6 7 10 15 10 8 0 15 -4 15 -10z m-1889 -23 c-1 -12
-15 -9 -19 4 -3 6 1 10 8 8 6 -3 11 -8 11 -12z m-248 -4 c-7 -2 -19 -2 -25 0
-7 3 -2 5 12 5 14 0 19 -2 13 -5z m194 -9 c-3 -3 -12 -4 -19 -1 -8 3 -5 6 6 6
11 1 17 -2 13 -5z m3489 -9 c-11 -8 -27 -15 -35 -15 -10 1 -7 6 9 15 33 19 50
18 26 0z m-3533 -10 c-3 -9 -8 -14 -10 -11 -3 3 -2 9 2 15 9 16 15 13 8 -4z
m1190 -23 c16 9 17 7 6 -10 -13 -20 -13 -20 -60 4 -26 13 -51 29 -54 34 -4 6
15 0 42 -13 36 -19 53 -23 66 -15z m-1145 17 c-2 -6 -8 -10 -13 -10 -5 0 -11
4 -13 10 -2 6 4 11 13 11 9 0 15 -5 13 -11z m3417 3 c-13 -11 -373 -183 -499
-239 -93 -40 -187 -59 -171 -33 3 6 18 10 31 10 31 0 280 103 419 173 145 73
249 115 220 89z m-4949 -57 c9 -14 14 -32 10 -40 -13 -35 -76 -1 -76 42 0 33
44 32 66 -2z m1434 15 c0 -5 -4 -10 -10 -10 -5 0 -10 5 -10 10 0 6 5 10 10 10
6 0 10 -4 10 -10z m60 2 c0 -13 -12 -22 -22 -16 -10 6 -1 24 13 24 5 0 9 -4 9
-8z m-2307 -109 l49 -51 -23 -15 c-13 -9 -36 -19 -52 -22 -15 -4 -29 -11 -32
-15 -9 -15 -54 3 -71 27 -20 31 -14 75 17 138 l22 44 20 -27 c11 -15 43 -50
70 -79z m1988 7 c109 -59 189 -60 524 -6 147 24 179 26 390 22 245 -5 267 -8
444 -62 164 -49 164 -60 1 -14 -36 10 -74 18 -85 19 -72 2 -164 0 -185 -4 -14
-3 -119 -7 -235 -10 -115 -3 -244 -10 -285 -15 -41 -6 -88 -13 -105 -15 -16
-2 -55 -9 -85 -14 -70 -13 -230 -19 -230 -8 0 5 -4 6 -9 3 -5 -3 -21 0 -37 8
-126 58 -167 84 -158 97 3 5 -2 9 -11 9 -9 0 -13 5 -10 10 9 15 16 13 76 -20z
m-160 -1 c26 -14 82 -75 111 -121 13 -21 32 -41 43 -44 19 -7 45 -28 45 -37 0
-3 -10 -3 -21 0 -15 4 -27 0 -36 -13 -13 -17 -14 -17 -29 4 -8 12 -22 22 -30
22 -8 0 -14 5 -14 10 0 6 -5 10 -11 10 -14 0 -59 47 -59 61 0 6 -8 9 -18 7
-11 -2 -27 3 -36 11 -15 13 -19 13 -26 1 -7 -11 -14 -11 -33 -3 -14 7 -33 9
-44 7 -10 -3 -29 -1 -43 5 -18 7 -20 10 -7 10 9 1 17 8 17 16 0 12 10 15 45
12 25 -2 48 -7 52 -11 3 -3 15 -6 25 -6 16 0 23 11 19 34 -2 8 18 36 26 36 2
0 13 -5 24 -11z m2839 -33 c0 -7 13 -31 28 -52 37 -51 55 -84 45 -84 -13 0
-93 123 -93 143 0 10 5 15 10 12 6 -3 10 -12 10 -19z m1050 -8 c29 -5 36 -2
-125 -53 -66 -20 -158 -53 -204 -71 -55 -22 -88 -31 -95 -24 -10 10 -14 9 134
59 248 86 242 83 236 104 -4 17 -3 17 12 4 9 -8 28 -17 42 -19z m520 6 c-25
-8 -101 -28 -170 -45 -69 -17 -154 -39 -190 -49 -36 -11 -146 -42 -244 -70
-99 -28 -208 -64 -244 -81 -36 -16 -68 -27 -71 -23 -5 5 21 25 34 25 2 0 35
11 72 26 146 55 313 105 531 158 125 30 241 59 257 64 50 15 73 11 25 -5z
m-4620 -4 c0 -5 -5 -10 -11 -10 -5 0 -7 5 -4 10 3 6 8 10 11 10 2 0 4 -4 4
-10z m2100 -60 c0 -4 -7 -10 -15 -14 -11 -4 -15 2 -15 21 0 21 2 24 15 13 8
-7 15 -16 15 -20z m1450 26 c0 -2 -7 -7 -16 -10 -8 -3 -12 -2 -9 4 6 10 25 14
25 6z m-4530 -26 c0 -5 -4 -10 -10 -10 -5 0 -10 5 -10 10 0 6 5 10 10 10 6 0
10 -4 10 -10z m856 -21 c19 -22 19 -22 -3 -11 -42 23 -36 -35 16 -136 32 -62
25 -73 -10 -17 -44 70 -81 154 -75 171 8 21 50 17 72 -7z m3256 10 c11 -6 80
-12 152 -14 100 -1 150 -7 211 -24 44 -13 97 -27 118 -32 43 -11 48 -25 13
-39 -13 -5 -27 -14 -31 -19 -10 -17 -28 -13 -21 4 7 18 -15 30 -71 39 -23 3
-54 11 -70 18 -36 15 -44 16 -212 18 -19 0 -40 5 -46 10 -7 5 -14 8 -16 5 -3
-2 -18 7 -34 20 -32 26 -28 33 7 14z m-4739 -16 c-13 -2 -33 -2 -45 0 -13 2
-3 4 22 4 25 0 35 -2 23 -4z m5304 1 c-3 -3 -12 -4 -19 -1 -8 3 -5 6 6 6 11 1
17 -2 13 -5z m-64 -31 c-7 -2 -21 -2 -30 0 -10 3 -4 5 12 5 17 0 24 -2 18 -5z
m-3645 -100 c17 -27 37 -46 52 -49 45 -9 134 -32 168 -43 25 -7 32 -7 29 2 -2
7 -43 23 -91 37 -110 30 -98 39 14 10 170 -43 230 -74 670 -342 271 -165 360
-221 360 -231 0 -9 -78 29 -102 51 -15 12 -18 13 -18 1 -1 -9 -7 -7 -19 8 -14
17 -21 19 -30 10 -10 -9 -12 -8 -9 8 2 15 -2 20 -18 19 -16 0 -20 4 -16 15 3
9 2 13 -2 9 -5 -4 -17 2 -29 12 -11 11 -24 17 -29 14 -4 -3 -8 0 -8 6 0 6 -4
8 -10 5 -5 -3 -10 -1 -10 5 0 7 -7 10 -15 6 -9 -3 -15 0 -15 10 0 8 -5 12 -11
9 -5 -4 -19 3 -30 16 -10 12 -19 18 -19 13 0 -5 -7 2 -16 14 -8 12 -20 20 -25
17 -5 -4 -9 -2 -9 3 0 4 -20 19 -45 31 -25 12 -45 26 -45 30 0 4 -16 13 -35
21 -19 8 -35 17 -35 20 0 4 -20 18 -45 31 -25 13 -45 28 -45 33 0 4 -6 6 -14
3 -8 -3 -17 1 -20 8 -3 8 -12 12 -19 9 -8 -3 -17 2 -21 11 -4 10 -12 15 -21
11 -9 -3 -18 0 -21 8 -6 15 -34 17 -34 3 0 -6 -8 -1 -17 10 -34 38 -83 55 -83
28 0 -8 -4 -15 -10 -15 -5 0 -10 5 -10 11 0 6 -6 9 -14 6 -19 -7 -221 46 -222
58 0 13 -34 71 -56 99 -16 19 -17 19 -18 3 0 -10 5 -27 10 -38 6 -11 7 -19 1
-19 -12 0 -21 25 -21 63 l0 30 25 -23 c14 -14 38 -44 53 -67z m138 52 c-3 -9
-11 -13 -16 -10 -8 5 -7 11 1 21 14 18 24 11 15 -11z m-1106 7 c0 -13 -12 -22
-22 -16 -10 6 -1 24 13 24 5 0 9 -4 9 -8z m1150 -17 c10 -12 10 -15 -4 -15 -9
0 -16 7 -16 15 0 8 2 15 4 15 2 0 9 -7 16 -15z m-880 -84 c-22 -44 -40 -53
-40 -20 0 11 -4 18 -9 15 -21 -13 4 36 33 65 l31 30 3 -25 c2 -13 -6 -43 -18
-65z m118 60 c35 -18 72 -65 72 -91 0 -7 -6 -10 -14 -7 -8 3 -16 -2 -19 -13
-4 -17 -14 -19 -66 -19 -34 1 -64 5 -67 10 -3 5 -10 7 -15 4 -5 -4 -4 6 2 22
13 34 58 113 65 113 3 0 21 -9 42 -19z m257 -7 c24 -11 25 -13 5 -8 -14 4 -38
13 -55 20 -24 11 -25 13 -5 8 14 -4 39 -13 55 -20z m725 16 c0 -5 -5 -10 -11
-10 -5 0 -7 5 -4 10 3 6 8 10 11 10 2 0 4 -4 4 -10z m53 -11 c4 -15 2 -19 -10
-15 -8 3 -19 6 -24 6 -5 0 -9 7 -9 15 0 23 37 18 43 -6z m602 1 c-3 -5 -11
-10 -16 -10 -6 0 -7 5 -4 10 3 6 11 10 16 10 6 0 7 -4 4 -10z m3358 -16 c56
-28 87 -64 87 -101 0 -22 -6 -36 -19 -43 -34 -18 -45 -11 -17 11 35 27 33 51
-6 85 -46 38 -89 54 -150 55 -40 0 -48 3 -33 10 27 12 98 3 138 -17z m-5793
-19 c-7 -8 -16 -15 -21 -15 -14 0 -10 17 8 36 20 20 32 1 13 -21z m4015 24
c10 -15 -1 -23 -20 -15 -9 3 -13 10 -10 16 8 13 22 13 30 -1z m57 -21 c-6 -6
-15 -9 -18 -5 -4 3 -4 14 0 23 5 13 9 15 18 6 9 -9 9 -15 0 -24z m-2952 2 c8
-5 11 -10 5 -10 -5 0 -17 5 -25 10 -8 5 -10 10 -5 10 6 0 17 -5 25 -10z m824
-20 c-15 -16 -32 -26 -37 -23 -7 4 -6 8 3 11 8 3 21 13 28 24 7 10 17 18 23
18 5 0 -3 -13 -17 -30z m529 -25 c3 -22 3 -32 1 -22 -5 14 -13 16 -46 10 -31
-4 -39 -3 -34 6 4 6 16 9 27 6 17 -6 19 -3 14 22 -5 21 -4 24 4 13 9 -13 11
-12 11 5 0 32 17 3 23 -40z m-1133 24 c0 -6 -4 -7 -10 -4 -5 3 -10 11 -10 16
0 6 5 7 10 4 6 -3 10 -11 10 -16z m1065 11 c3 -5 1 -10 -4 -10 -6 0 -11 5 -11
10 0 6 2 10 4 10 3 0 8 -4 11 -10z m-382 -8 c3 8 6 6 6 -5 1 -22 -30 -20 -37
3 -4 13 -3 13 10 2 13 -10 17 -10 21 0z m490 -19 c-3 -7 -9 -10 -14 -7 -14 8
-11 21 5 21 8 0 12 -6 9 -14z m1477 8 c0 -5 -9 -11 -20 -14 -22 -6 -28 8 -7
16 19 8 27 8 27 -2z m-3727 -21 c-3 -11 -9 -20 -13 -20 -5 0 -6 9 -3 20 3 11
9 20 13 20 5 0 6 -9 3 -20z m4161 5 c-25 -19 -40 -19 -24 0 7 8 20 15 28 15
13 0 12 -3 -4 -15z m1278 -23 c25 -21 65 -58 89 -82 39 -38 37 -37 -21 11
-112 92 -131 109 -123 109 5 0 29 -17 55 -38z m-3702 14 c0 -3 -4 -8 -10 -11
-5 -3 -10 -1 -10 4 0 6 5 11 10 11 6 0 10 -2 10 -4z m2612 -7 c29 -6 68 -22
86 -36 31 -23 32 -26 15 -38 -57 -40 -97 -56 -124 -50 -34 8 -48 25 -20 25 11
0 22 4 25 8 3 4 -17 8 -44 7 -27 -1 -48 1 -45 3 2 3 0 13 -6 24 -8 15 -18 18
-51 14 -23 -3 -44 -10 -49 -17 -9 -16 -52 -19 -61 -5 -4 6 -2 16 4 23 8 10 7
12 -6 7 -9 -3 -16 -1 -16 5 0 17 42 30 83 27 20 -2 53 0 74 4 57 11 77 11 135
-1z m1728 7 c0 -3 -4 -8 -10 -11 -5 -3 -10 -1 -10 4 0 6 5 11 10 11 6 0 10 -2
10 -4z m-1249 -192 l2 -179 -52 -188 c-28 -103 -51 -198 -51 -211 0 -30 10
-57 19 -52 4 3 7 -3 8 -12 6 -84 46 -162 84 -162 12 0 19 -7 19 -20 0 -11 5
-20 12 -20 6 0 8 -3 5 -6 -4 -4 17 -25 45 -48 86 -70 170 -164 205 -228 43
-80 42 -86 -3 -18 -39 59 -118 145 -147 161 -10 6 12 -25 48 -68 65 -76 138
-206 150 -268 4 -22 1 -18 -13 15 -48 113 -170 286 -233 331 -33 23 -40 9 -13
-29 25 -36 4 -25 -37 20 l-39 43 0 -30 c-1 -29 -1 -29 -15 -11 -11 14 -15 16
-15 5 -1 -10 -5 -9 -15 5 -11 15 -15 16 -16 5 0 -8 -5 -4 -11 8 -9 19 -7 27
13 47 14 13 38 26 54 28 l30 4 -37 19 c-20 10 -35 22 -33 26 3 4 -8 18 -23 31
-24 20 -27 28 -20 47 10 29 -5 90 -31 123 -19 24 -19 25 4 118 12 52 39 154
59 225 29 105 36 144 34 205 -4 100 1 275 7 269 2 -3 5 -86 6 -185z m717 147
c3 -8 -1 -12 -9 -9 -7 2 -15 10 -17 17 -3 8 1 12 9 9 7 -2 15 -10 17 -17z
m-4185 -144 c145 -110 271 -228 325 -304 38 -54 10 -37 -33 20 -45 59 -157
171 -195 195 -60 38 -209 154 -255 197 -61 57 -42 44 158 -108z m42 143 c3 -5
1 -10 -4 -10 -6 0 -11 5 -11 10 0 6 2 10 4 10 3 0 8 -4 11 -10z m30 -10 c3 -5
1 -10 -4 -10 -6 0 -11 5 -11 10 0 6 2 10 4 10 3 0 8 -4 11 -10z m3748 -35 c60
-40 71 -42 111 -16 17 11 34 17 39 14 14 -8 -51 -43 -81 -43 -15 1 -51 18 -82
40 -68 49 -58 53 13 5z m-5052 2 c-10 -9 -11 -8 -5 6 3 10 9 15 12 12 3 -3 0
-11 -7 -18z m3937 11 c-2 -6 -119 -67 -259 -135 -472 -228 -682 -330 -1634
-799 -66 -32 -123 -60 -126 -62 -4 -2 -9 4 -13 13 -6 16 47 46 254 140 52 24
262 125 465 225 204 101 453 222 555 270 330 156 715 342 725 351 13 13 37 11
33 -3z m-5668 -18 c0 -5 -5 -10 -11 -10 -5 0 -7 5 -4 10 3 6 8 10 11 10 2 0 4
-4 4 -10z m2426 -32 c6 -19 7 -19 16 -5 13 24 31 21 23 -4 -6 -18 -5 -19 14
-10 21 11 21 11 -1 -26 -31 -56 -109 -133 -133 -132 -11 0 -28 4 -39 8 -17 6
-16 9 9 39 31 38 28 39 -26 11 -23 -11 -44 -18 -47 -15 -3 3 0 6 6 6 16 0 122
100 122 116 0 12 26 33 42 34 4 0 10 -10 14 -22z m4704 -149 c10 -23 9 -37 -4
-75 -8 -26 -13 -52 -9 -58 4 -7 2 -7 -7 1 -10 9 -10 19 -1 44 25 72 18 88 -76
178 l-88 83 87 -72 c47 -40 92 -85 98 -101z m-4870 144 c-1 -5 -12 -21 -26
-38 -23 -27 -24 -27 -14 -5 20 40 41 62 40 43z m288 -4 c16 8 23 8 29 -1 17
-28 42 -40 59 -30 10 6 29 6 46 2 17 -5 28 -5 28 1 0 6 5 7 10 4 6 -4 7 -11 4
-17 -4 -7 -2 -8 4 -4 6 4 23 0 36 -9 14 -9 39 -19 57 -22 53 -8 107 -53 64
-53 -8 0 -15 5 -15 11 0 5 -4 7 -10 4 -5 -3 -10 1 -10 11 0 13 -5 11 -27 -10
-14 -14 -24 -28 -22 -31 3 -2 23 -7 46 -11 35 -5 43 -3 52 15 7 11 19 21 29
21 13 0 14 -2 4 -9 -11 -7 -11 -9 2 -14 8 -3 18 -2 21 4 7 10 125 -103 125
-119 0 -5 10 -12 22 -15 12 -4 20 -9 17 -11 -12 -12 -116 25 -149 52 -8 7 -17
11 -20 10 -3 -1 -16 4 -29 12 -37 19 -135 26 -216 14 -22 -3 -97 -19 -166 -35
-70 -16 -161 -31 -203 -33 -42 -3 -85 -7 -95 -11 -10 -3 -35 -7 -57 -10 -21
-2 -70 -9 -109 -15 -38 -7 -86 -14 -105 -17 -19 -2 -42 -7 -50 -10 -8 -4 -22
-8 -30 -10 -144 -28 -230 -51 -247 -65 -7 -6 -23 -8 -36 -6 -13 2 -29 -2 -36
-9 -7 -8 -21 -11 -32 -8 -10 4 -19 2 -19 -2 0 -5 -28 -21 -62 -37 -97 -42
-127 -58 -206 -103 -41 -24 -78 -43 -82 -43 -5 0 -39 -30 -76 -67 -71 -72
-120 -142 -160 -227 -27 -57 -22 -24 6 41 23 53 92 154 136 200 19 19 31 40
27 45 -3 6 -2 8 4 5 5 -4 44 26 86 66 41 40 98 90 126 112 33 26 50 48 51 63
0 12 5 22 11 22 5 0 7 -4 4 -10 -14 -22 9 -8 45 29 21 21 42 36 46 32 4 -3 5
1 1 10 -4 11 0 16 11 15 11 -1 18 8 20 22 3 18 7 21 16 12 10 -7 17 -6 27 7
13 16 12 17 -3 4 -11 -8 -18 -9 -18 -3 0 6 8 16 18 22 15 10 14 10 -5 5 -12
-3 -24 -1 -28 5 -8 13 14 42 28 37 14 -4 49 31 42 42 -8 14 23 34 42 26 10 -4
28 -9 41 -11 20 -4 22 -1 16 20 -7 29 11 43 26 19 10 -16 10 -16 5 3 -4 14 0
24 9 27 10 4 13 1 9 -9 -3 -8 1 -15 8 -15 8 -1 21 -2 29 -3 31 -2 18 -32 -32
-71 -28 -22 -65 -53 -82 -69 -17 -16 -53 -46 -81 -65 -165 -119 -170 -124
-142 -134 8 -3 7 -10 -7 -26 -23 -26 -33 -27 -38 -3 -2 10 -6 13 -10 7 -4 -6
-3 -17 2 -25 8 -12 17 -12 62 4 29 11 60 25 68 31 8 7 31 18 50 23 19 6 78 26
132 45 53 19 118 38 144 42 26 3 50 8 53 10 14 8 264 56 268 51 3 -3 14 -1 25
5 11 6 52 13 92 16 39 2 134 16 211 29 77 14 177 30 223 37 50 7 82 16 82 23
0 7 5 14 12 16 8 3 8 9 1 22 -8 15 -12 16 -24 4 -8 -8 -21 -15 -29 -16 -8 -1
-36 -4 -62 -8 -44 -6 -46 -5 -41 15 5 20 3 21 -22 11 -21 -8 -30 -8 -35 0 -4
7 -10 11 -14 10 -10 -2 -66 70 -66 84 0 6 4 5 9 -3 6 -10 13 -11 29 -2z m806
-13 c29 -13 67 -27 85 -29 18 -3 38 -11 46 -17 8 -7 31 -10 50 -8 23 3 35 0
35 -8 0 -14 38 -25 46 -13 3 5 0 9 -6 9 -7 0 -9 7 -6 16 3 8 2 12 -4 9 -6 -4
-17 1 -26 10 -9 9 -23 14 -30 11 -8 -3 -14 -1 -14 4 0 5 13 8 30 8 16 -1 27
-5 24 -9 -3 -5 10 -7 28 -5 48 6 80 -3 73 -22 -4 -12 -3 -12 9 -3 13 11 46 6
46 -7 0 -3 -10 -16 -22 -29 -12 -13 -19 -25 -16 -28 6 -7 33 17 42 37 5 10 7
10 12 -1 5 -10 8 -10 14 -1 7 12 32 8 140 -25 79 -24 201 -47 256 -49 30 0 54
-5 54 -10 0 -4 -13 -6 -28 -4 -27 4 -57 -13 -45 -26 10 -10 43 -7 43 4 0 6 5
10 10 10 6 0 10 -9 10 -19 0 -11 5 -23 11 -26 6 -4 9 -1 7 7 -2 7 1 14 6 15 5
1 13 7 17 15 13 21 12 -9 -2 -34 -8 -15 -8 -19 0 -14 6 4 11 2 11 -3 0 -6 5
-11 12 -11 9 0 9 3 0 12 -17 17 -15 31 3 24 8 -3 15 -1 15 5 0 6 5 7 10 4 6
-4 8 -15 5 -25 -6 -20 16 -33 40 -24 21 8 68 -24 58 -39 -5 -9 -2 -8 9 1 19
15 39 8 56 -18 9 -15 9 -20 0 -20 -6 0 -9 -3 -5 -6 3 -3 11 -2 18 2 17 10 59
12 59 2 0 -4 -19 -13 -42 -19 -24 -7 -55 -21 -70 -31 -14 -10 -32 -18 -39 -18
-7 0 -20 -7 -29 -15 -20 -18 -116 -55 -143 -55 -35 0 -126 39 -185 79 -34 22
-64 41 -68 41 -4 0 -15 -7 -25 -16 -16 -14 -28 -9 -154 73 -74 48 -148 95
-163 104 -52 30 -297 182 -317 195 -30 21 -10 17 49 -10z m-1779 -9 c17 -17 4
-40 -18 -31 -19 7 -19 7 -11 28 7 19 12 20 29 3z m5779 3 c46 0 70 -6 96 -22
l35 -22 -35 -6 c-25 -4 -39 -1 -50 11 -10 11 -44 21 -89 28 -40 5 -76 13 -79
17 -4 4 8 4 27 0 18 -3 61 -6 95 -6z m-5679 -10 c3 -5 1 -10 -4 -10 -6 0 -11
5 -11 10 0 6 2 10 4 10 3 0 8 -4 11 -10z m3991 -1 c3 -6 0 -15 -7 -20 -14 -8
-15 -12 -18 -44 -1 -9 -7 -12 -18 -8 -12 5 -14 3 -8 -8 4 -8 -6 -1 -23 15 -18
17 -32 35 -32 41 0 27 91 47 106 24z m-3120 -49 c28 0 10 -33 -25 -48 -32 -12
-34 -12 -22 2 8 9 9 16 3 16 -16 0 -24 50 -11 67 11 12 15 11 26 -11 8 -14 21
-26 29 -26z m2333 47 c-2 -1 -13 -9 -24 -17 -19 -14 -19 -14 -6 3 7 9 18 17
24 17 6 0 8 -1 6 -3z m943 -7 c13 -6 34 -28 47 -48 20 -31 21 -34 4 -19 -20
17 -21 17 -56 -18 -37 -37 -60 -43 -82 -22 -21 21 -56 97 -50 107 8 13 108 13
137 0z m-715 -16 c-3 -3 -12 -4 -19 -1 -8 3 -5 6 6 6 11 1 17 -2 13 -5z
m-2812 -14 c-3 -5 -12 -10 -18 -10 -7 0 -6 4 3 10 19 12 23 12 15 0z m2488
-161 c-6 -6 -8 1 -5 19 2 16 0 44 -5 63 -5 19 -6 48 -4 64 3 20 8 1 14 -53 6
-52 6 -87 0 -93z m2702 123 c-3 -3 -11 0 -18 7 -9 10 -8 11 6 5 10 -3 15 -9
12 -12z m-1910 -15 c-11 -7 -288 -147 -615 -313 -594 -300 -1151 -587 -1213
-624 -37 -23 -57 -25 -57 -7 0 15 28 31 280 159 107 55 196 101 198 103 2 2
-10 11 -27 21 -36 21 -39 30 -11 37 14 4 23 -2 32 -21 7 -15 17 -26 21 -25 4
1 288 141 630 311 715 357 770 383 777 376 2 -3 -4 -11 -15 -17z m-3110 -6
c-3 -6 -11 -11 -17 -11 -6 0 -6 6 2 15 14 17 26 13 15 -4z m-952 -26 c-3 -9
-8 -14 -10 -11 -3 3 -2 9 2 15 9 16 15 13 8 -4z m-303 -51 c0 -29 -31 -40 -47
-18 -14 19 -8 54 11 66 14 10 36 -19 36 -48z m3547 24 c-3 -7 -5 -2 -5 12 0
14 2 19 5 13 2 -7 2 -19 0 -25z m622 21 c-7 -4 -17 -5 -21 -3 -4 3 -17 -4 -29
-15 -12 -11 -26 -18 -30 -15 -4 2 -11 -1 -14 -7 -4 -5 -13 -8 -21 -5 -9 3 -11
0 -7 -12 6 -15 5 -15 -11 -3 -21 18 -12 27 49 50 49 19 110 26 84 10z m-3331
-58 c-19 -24 -25 -27 -37 -16 -17 17 -5 37 19 30 10 -3 21 -1 25 5 3 5 9 10
11 10 3 0 -5 -13 -18 -29z m1052 14 c7 -9 8 -15 2 -15 -5 0 -12 7 -16 15 -3 8
-4 15 -2 15 2 0 9 -7 16 -15z m155 -25 c-3 -5 -11 -10 -16 -10 -6 0 -7 5 -4
10 3 6 11 10 16 10 6 0 7 -4 4 -10z m1081 -27 c-10 -10 -19 5 -10 18 6 11 8
11 12 0 2 -7 1 -15 -2 -18z m1430 -5 c4 -18 8 -116 9 -218 1 -121 5 -195 13
-214 22 -50 3 -41 -20 10 -24 52 -24 40 -15 349 1 33 -2 70 -6 83 -5 13 -4 22
2 22 5 0 13 -15 17 -32z m-581 4 c-3 -3 -11 0 -18 7 -9 10 -8 11 6 5 10 -3 15
-9 12 -12z m312 -8 c-15 -8 -25 -18 -23 -23 3 -4 -14 -16 -37 -26 -23 -10 -45
-23 -48 -28 -7 -11 -29 -1 -29 13 0 5 17 16 38 25 20 9 53 25 72 35 19 11 40
19 45 19 6 0 -3 -7 -18 -15z m-373 -9 c4 -12 0 -14 -22 -8 -23 5 -25 4 -14 -9
10 -13 9 -15 -12 -11 -13 3 -32 0 -43 -6 -16 -11 -16 -11 5 -6 13 4 22 2 22
-5 0 -6 -4 -9 -9 -5 -5 3 -16 -4 -24 -15 -8 -11 -20 -18 -28 -16 -8 3 -30 1
-49 -3 -19 -5 -29 -9 -22 -10 7 -1 10 -6 7 -11 -4 -6 -16 -8 -27 -4 -13 4 -18
2 -14 -5 7 -11 -38 -27 -63 -22 -8 1 -10 -2 -5 -10 5 -9 2 -10 -9 -6 -10 3
-17 2 -17 -3 0 -6 -7 -10 -16 -10 -8 0 -13 -4 -10 -9 3 -4 -25 -23 -62 -40
-37 -17 -85 -43 -107 -56 -85 -52 -98 -57 -128 -51 -25 5 -28 4 -17 -9 7 -8
17 -12 23 -8 6 3 7 1 3 -5 -11 -18 -30 -14 -43 6 -12 20 -31 9 250 148 49 24
109 53 135 64 26 12 54 25 62 31 8 5 49 25 90 45 41 19 86 41 100 49 32 18 37
18 44 0z m-3729 -5 c3 -5 2 -10 -4 -10 -5 0 -13 5 -16 10 -3 6 -2 10 4 10 5 0
13 -4 16 -10z m1454 -6 c3 -4 -2 -4 -11 -1 -10 4 -18 2 -18 -4 0 -5 14 -12 30
-16 17 -3 35 -14 41 -24 8 -15 6 -17 -8 -12 -61 23 -110 77 -61 68 12 -3 23
-7 27 -11z m498 -7 c-12 -13 -24 -22 -26 -20 -6 4 30 43 40 43 5 0 -2 -10 -14
-23z m-1727 -2 c-14 -8 -32 -14 -40 -15 -30 0 -41 -22 -23 -42 9 -10 11 -18 5
-18 -6 0 -14 5 -17 10 -5 8 -11 7 -21 -1 -7 -6 -12 -15 -9 -19 7 -12 -55 -24
-66 -13 -15 15 142 110 186 112 6 0 -1 -6 -15 -14z m200 5 c0 -5 -7 -7 -15 -4
-8 4 -15 8 -15 10 0 2 7 4 15 4 8 0 15 -4 15 -10z m850 -30 c36 -11 81 -33
100 -49 43 -37 30 -39 -38 -6 -71 34 -126 33 -91 -2 7 -7 1 -12 -21 -15 -23
-4 -35 0 -43 14 -16 24 -31 23 -24 -2 8 -30 -8 -33 -53 -10 -34 17 -41 18 -46
6 -3 -8 0 -24 6 -37 12 -20 11 -21 -16 -15 l-29 6 25 -20 c14 -11 33 -27 42
-37 17 -15 21 -15 65 11 27 15 60 32 76 37 15 6 27 14 27 18 0 4 38 6 85 5 62
-1 83 1 79 9 -3 7 0 5 8 -4 7 -8 27 -23 44 -33 32 -19 72 -81 61 -93 -4 -3 -7
-1 -7 6 0 8 -6 11 -16 7 -14 -5 -15 -4 -5 7 9 11 8 17 -2 26 -8 6 -17 8 -20 4
-4 -3 -7 -1 -7 5 0 7 -7 12 -15 12 -8 0 -15 -5 -15 -10 0 -7 -7 -7 -20 0 -11
6 -25 8 -30 5 -5 -3 -11 -1 -14 4 -6 9 -53 4 -93 -8 -2 -1 -5 -1 -8 -2 -27 -4
-111 -42 -134 -61 -36 -28 -40 -66 -11 -137 10 -27 22 -73 25 -103 6 -52 5
-51 -23 32 l-29 85 5 -111 c3 -75 1 -113 -6 -118 -8 -5 -11 16 -9 66 3 132 -2
214 -13 198 -5 -8 -10 -23 -10 -32 0 -9 -5 -29 -12 -45 -6 -15 -12 -42 -14
-60 -3 -33 -42 -118 -50 -110 -3 2 9 46 26 97 20 62 30 111 29 149 -1 55 -1
56 -14 26 -8 -16 -17 -54 -20 -83 -4 -29 -11 -55 -16 -58 -5 -3 -6 3 -3 13 3
10 -6 -1 -20 -25 -14 -24 -35 -55 -46 -69 -17 -22 -20 -23 -21 -7 0 15 -2 14
-10 -5 -5 -13 -12 -22 -14 -19 -3 3 1 21 9 40 9 20 12 38 9 42 -9 8 27 84 43
90 22 8 45 64 49 117 1 27 0 47 -4 45 -3 -2 -22 -37 -40 -78 -58 -125 -65
-139 -85 -156 -18 -16 -19 -16 -13 1 10 27 -9 20 -22 -9 -16 -36 -24 -25 -10
15 17 48 2 51 -19 3 -9 -23 -20 -42 -24 -42 -11 0 -10 34 2 67 9 27 9 27 -6 8
-9 -11 -31 -44 -49 -74 -18 -29 -35 -49 -37 -45 -9 16 20 97 57 159 33 53 34
57 10 35 -14 -13 -38 -44 -53 -67 -38 -61 -57 -63 -27 -3 14 28 21 50 17 50
-5 0 -14 -10 -20 -22 -10 -23 -11 -23 -11 -2 -1 12 13 48 29 80 l31 59 -30
-35 c-17 -19 -36 -53 -42 -75 -22 -84 -33 -107 -40 -88 -4 10 0 33 7 52 8 19
13 36 11 38 -11 10 -42 -45 -68 -119 -16 -46 -29 -74 -29 -63 0 27 38 145 52
162 6 7 8 13 6 13 -3 0 19 26 48 57 30 31 52 58 50 61 -5 4 -99 -91 -149 -150
l-28 -33 16 33 c8 17 11 32 6 32 -5 0 -30 -42 -56 -92 -38 -77 -45 -86 -39
-53 8 49 32 98 73 149 36 46 38 50 10 36 -26 -14 -99 -40 -99 -36 0 2 21 16
46 31 25 15 70 49 100 76 29 26 72 58 95 69 27 14 39 26 35 35 -7 20 18 31 84
40 30 4 60 11 65 16 27 21 186 81 235 89 66 9 104 6 190 -20z m615 20 c3 -5 1
-10 -4 -10 -6 0 -11 5 -11 10 0 6 2 10 4 10 3 0 8 -4 11 -10z m122 -4 c-26
-12 -27 -14 -13 -29 20 -19 20 -24 1 -24 -8 0 -12 4 -9 9 3 4 1 8 -5 8 -6 0
-15 -15 -21 -32 l-10 -33 3 32 c3 26 1 30 -10 22 -8 -7 -13 -8 -13 -1 0 15 26
33 35 24 5 -4 5 -1 1 6 -5 8 1 16 16 21 35 14 57 11 25 -3z m-268 1 c-2 -1
-13 -9 -24 -17 -19 -14 -19 -14 -6 3 7 9 18 17 24 17 6 0 8 -1 6 -3z m331 -8
c13 -9 12 -10 -2 -5 -10 3 -24 -1 -32 -9 -7 -8 -16 -11 -20 -8 -3 3 2 12 12
19 21 16 23 16 42 3z m3063 -20 c-17 -17 -37 -1 -22 17 8 10 15 12 23 4 7 -7
7 -13 -1 -21z m-4843 5 c-15 -17 -17 -17 -23 -1 -3 8 3 14 15 14 16 2 17 -1 8
-13z m2880 1 c-7 -9 -15 -13 -19 -10 -3 3 1 10 9 15 21 14 24 12 10 -5z
m-2950 -5 c0 -5 -2 -10 -4 -10 -3 0 -8 5 -11 10 -3 6 -1 10 4 10 6 0 11 -4 11
-10z m1176 -11 c19 -22 19 -22 -1 -11 -11 6 -27 16 -35 22 -13 8 -13 10 1 10
9 0 24 -10 35 -21z m354 17 c0 -3 -4 -8 -10 -11 -5 -3 -10 -1 -10 4 0 6 5 11
10 11 6 0 10 -2 10 -4z m16 -22 c-4 -10 -1 -14 6 -11 7 2 23 -10 34 -27 17
-24 19 -34 10 -45 -9 -12 -8 -12 12 -2 20 10 28 8 65 -19 49 -35 79 -45 202
-65 122 -20 206 -47 265 -85 28 -18 50 -34 50 -37 0 -2 -3 -3 -7 -1 -54 26
-70 35 -81 48 -8 8 -11 9 -7 3 3 -7 1 -13 -4 -13 -6 0 -11 4 -11 9 0 4 -48 16
-107 25 -163 26 -255 45 -283 58 -14 6 -29 12 -35 12 -5 1 -10 11 -9 23 0 17
-3 20 -12 12 -18 -14 -77 39 -71 63 3 10 1 15 -4 12 -5 -3 -16 2 -25 10 -12
13 -13 18 -2 30 17 20 22 20 14 0z m296 -15 c-41 -8 -59 -2 -24 8 12 3 20 9
17 13 -3 5 6 3 20 -3 24 -12 24 -12 -13 -18z m1888 2 c0 -10 -140 -85 -539
-288 -113 -57 -210 -108 -215 -112 -6 -5 -86 -47 -178 -95 l-167 -86 -26 26
c-30 30 -31 33 -7 31 19 -1 135 55 162 79 28 24 194 95 212 91 10 -3 20 -1 23
4 3 4 13 5 22 2 10 -4 14 -2 10 4 -9 15 52 66 70 59 8 -3 11 -1 8 4 -3 6 29
27 72 47 43 20 86 43 96 52 13 11 20 12 29 3 17 -17 31 -15 24 3 -4 11 3 19
22 27 15 6 41 17 59 24 17 8 35 14 39 14 11 0 117 52 124 61 3 3 14 5 25 3 27
-5 76 16 68 29 -10 16 39 48 54 35 7 -6 13 -13 13 -17z m386 -12 c-3 -17 -6
-42 -6 -55 0 -17 -8 -28 -26 -34 -14 -6 -46 -26 -70 -46 l-43 -36 -24 26 c-13
14 -27 26 -30 26 -3 0 -18 5 -33 11 -28 10 -27 11 56 56 183 99 186 100 176
52z m1009 1 c3 -5 1 -10 -4 -10 -6 0 -11 5 -11 10 0 6 2 10 4 10 3 0 8 -4 11
-10z m-3840 -20 c10 -11 13 -20 7 -20 -6 0 -16 9 -22 20 -6 11 -9 20 -7 20 2
0 12 -9 22 -20z m476 -13 l-24 -22 19 27 c10 14 21 24 23 22 3 -3 -6 -15 -18
-27z m-3301 8 c0 -8 -4 -15 -10 -15 -5 0 -10 7 -10 15 0 8 5 15 10 15 6 0 10
-7 10 -15z m3446 -7 c13 -16 14 -19 2 -10 -9 8 -27 10 -42 6 -26 -6 -38 10
-13 19 23 10 34 7 53 -15z m463 -28 c7 -28 24 -72 37 -97 14 -25 23 -47 22
-48 -2 -1 -13 -5 -24 -9 -26 -8 -37 15 -59 119 -18 86 -18 85 -2 85 7 0 19
-22 26 -50z m643 43 c-6 -2 -10 -9 -6 -14 3 -5 -2 -9 -10 -9 -9 0 -16 4 -16 9
0 10 18 19 35 19 6 0 4 -2 -3 -5z m-2125 -38 c6 -14 9 -25 6 -25 -10 0 -51 49
-46 54 9 9 28 -4 40 -29z m1573 -38 c0 -5 5 -5 12 -1 6 4 8 3 4 -4 -4 -6 10
-22 31 -38 l38 -26 -32 6 c-17 3 -33 1 -35 -4 -3 -8 -98 123 -98 135 0 9 80
-59 80 -68z m-663 49 c-3 -8 -1 -17 6 -19 7 -2 10 -7 7 -10 -11 -11 -33 11
-27 27 4 9 9 16 13 16 3 0 4 -6 1 -14z m298 -6 c4 -6 -6 -10 -22 -9 -25 0 -26
1 -8 9 11 5 21 9 22 9 1 1 5 -3 8 -9z m-194 -33 c-11 -11 -41 -3 -41 11 0 5
12 7 26 4 17 -3 22 -8 15 -15z m33 -22 c-28 -22 -40 -18 -13 4 13 11 26 17 28
15 3 -2 -4 -11 -15 -19z m236 15 c11 -7 5 -10 -25 -10 -52 0 -72 -12 -50 -30
13 -11 18 -10 29 6 8 10 18 16 21 12 4 -4 -3 -20 -17 -36 -21 -26 -25 -27 -38
-13 -8 8 -20 26 -27 38 -10 19 -9 24 5 33 22 12 83 12 102 0z m1920 -39 c0
-24 -32 -59 -38 -42 -4 11 23 61 33 61 3 0 5 -9 5 -19z m-1892 -12 c-16 -11
-28 -29 -28 -40 0 -10 -4 -19 -10 -19 -15 0 -12 33 6 58 8 12 25 22 37 22 21
-1 21 -2 -5 -21z m577 11 c-3 -5 -12 -10 -18 -10 -7 0 -6 4 3 10 19 12 23 12
15 0z m-508 -31 c15 -28 17 -105 4 -113 -5 -4 -7 11 -4 34 4 29 0 48 -16 75
-13 22 -16 35 -9 33 7 -3 19 -15 25 -29z m503 7 c0 -2 -7 -7 -16 -10 -8 -3
-12 -2 -9 4 6 10 25 14 25 6z m2540 -59 c13 -27 16 -47 10 -58 -5 -9 -6 -19
-3 -23 3 -3 -1 -6 -9 -6 -21 0 -68 38 -77 64 -19 51 -23 68 -13 62 6 -3 13 -2
16 2 3 5 17 7 32 4 19 -3 31 -16 44 -45z m-3112 19 c-1 -14 -5 -23 -9 -20 -7
4 0 44 7 44 2 0 3 -11 2 -24z m42 -10 c0 -14 -3 -27 -7 -29 -5 -3 -8 8 -8 24
0 16 3 29 8 29 4 0 7 -11 7 -24z m-964 -22 c111 -32 220 -50 403 -68 85 -9
157 -18 159 -21 11 -11 -14 -24 -58 -30 -37 -5 -53 -2 -93 19 -61 33 -66 33
-36 -1 17 -20 18 -23 3 -10 -12 10 -37 17 -62 17 -23 0 -86 8 -140 17 -53 9
-121 16 -149 14 -29 -1 -53 2 -53 6 0 5 -19 14 -42 21 -51 16 -79 39 -71 58 6
15 12 14 139 -22z m1414 32 c0 -2 -7 -7 -16 -10 -8 -3 -12 -2 -9 4 6 10 25 14
25 6z m-3470 -40 c0 -8 -4 -17 -8 -20 -13 -8 -35 11 -28 23 10 16 36 14 36 -3z
m3390 0 c0 -2 -7 -7 -16 -10 -8 -3 -12 -2 -9 4 6 10 25 14 25 6z m-665 -49
c17 -9 26 -16 20 -16 -5 0 -21 6 -35 14 -14 8 -34 14 -46 15 -11 0 -29 7 -40
15 -17 13 -14 13 26 2 25 -8 59 -21 75 -30z m849 27 c3 -8 2 -12 -4 -9 -6 3
-10 10 -10 16 0 14 7 11 14 -7z m-20 -9 c7 -20 -4 -47 -17 -42 -6 2 -15 11
-21 20 -8 13 -7 20 4 27 21 13 27 12 34 -5z m271 5 c4 -6 1 -9 -7 -8 -7 2 -12
-2 -11 -9 2 -8 -4 -10 -14 -6 -14 6 -14 8 3 20 21 16 21 16 29 3z m-4143 -39
l33 -30 -35 -36 c-51 -53 -91 -75 -156 -85 -58 -10 -71 -19 -86 -65 -5 -18 -6
-18 -7 3 -1 13 10 40 24 60 14 20 25 41 25 47 -1 15 -40 -35 -40 -51 0 -8 -5
-14 -11 -14 -18 0 -3 109 18 138 30 40 81 62 145 62 50 0 62 -4 90 -29z m3566
-7 c-12 -7 -25 -9 -28 -4 -3 4 -21 -1 -40 -11 -19 -11 -28 -19 -21 -19 8 0 12
-2 10 -5 -3 -2 -14 -2 -26 1 -18 5 -10 12 40 39 46 24 65 30 75 22 11 -8 9
-13 -10 -23z m253 29 c0 -5 2 -16 4 -25 4 -22 -18 -23 -36 -2 -10 13 -10 17 2
25 17 11 29 11 30 2z m-1503 -15 c-6 -18 -25 -20 -31 -3 -5 10 0 15 14 15 12
0 19 -5 17 -12z m1782 -9 c0 -6 -4 -7 -10 -4 -5 3 -10 11 -10 16 0 6 5 7 10 4
6 -3 10 -11 10 -16z m-1610 -9 c0 -5 -5 -10 -11 -10 -5 0 -7 5 -4 10 3 6 8 10
11 10 2 0 4 -4 4 -10z m646 -6 c17 -14 17 -15 1 -10 -10 3 -27 6 -38 6 -10 0
-19 5 -19 10 0 15 34 12 56 -6z m636 -9 c6 -14 8 -28 5 -32 -8 -8 -36 26 -37
45 0 21 20 13 32 -13z m-780 -13 c-5 -15 -4 -15 11 -3 14 11 22 11 48 1 21 -9
33 -10 37 -3 5 7 25 8 57 3 27 -4 55 -5 62 -3 7 3 13 2 13 -1 0 -3 -48 -30
-108 -60 -102 -51 -109 -53 -135 -40 -31 17 -33 26 -12 44 18 15 20 61 4 77
-9 9 -7 11 9 6 14 -3 19 -10 14 -21z m-592 -4 c0 -6 -6 -5 -15 2 -8 7 -15 14
-15 16 0 2 7 1 15 -2 8 -4 15 -11 15 -16z m3399 -21 c0 -18 -4 -50 -9 -72 -7
-34 -8 -29 -8 37 1 43 5 75 9 72 5 -3 9 -20 8 -37z m1189 21 c-3 -24 -34 -36
-49 -21 -16 16 2 43 28 43 20 0 24 -4 21 -22z m-3268 -13 c0 -27 -22 -34 -44
-13 -11 11 -11 15 3 25 25 20 41 15 41 -12z m-315 -5 c-3 -5 -12 -10 -20 -10
-8 0 -17 -5 -21 -11 -4 -8 1 -9 17 -5 20 6 21 5 6 -4 -9 -6 -22 -8 -27 -5 -9
5 -67 -20 -80 -36 -10 -11 -49 -25 -78 -28 -7 0 -10 -6 -6 -12 4 -7 1 -10 -7
-7 -8 3 -29 -1 -46 -9 -50 -20 -39 -8 20 23 48 25 238 113 245 114 2 0 0 -4
-3 -10z m-514 -56 c129 -70 155 -89 133 -98 -9 -3 -12 -2 -9 4 4 6 -7 13 -24
16 -17 4 -29 10 -26 14 2 4 -6 6 -18 5 -24 -3 -71 28 -60 39 4 3 -3 6 -15 6
-12 0 -22 5 -22 10 0 6 -5 10 -10 10 -6 0 -23 11 -38 25 -15 14 -24 25 -21 25
3 0 53 -25 110 -56z m667 -6 c16 -16 15 -28 -2 -28 -8 0 -36 -9 -62 -21 -33
-14 -44 -23 -35 -28 9 -6 3 -14 -22 -28 -22 -14 -39 -18 -48 -12 -19 12 -29
11 -29 -1 0 -5 7 -10 16 -10 8 0 12 -5 9 -10 -4 -7 -11 -7 -18 -2 -7 5 -26 11
-44 14 -28 4 -31 2 -22 -13 13 -25 12 -28 -10 -22 -13 3 -18 10 -14 21 5 10
-4 8 -28 -9 -19 -13 -35 -27 -37 -31 -2 -5 -12 -8 -23 -8 -11 0 -19 -7 -19
-17 0 -15 -2 -16 -10 -3 -18 28 -10 37 58 65 37 16 123 57 191 92 69 35 128
63 131 63 3 0 11 -5 18 -12z m-998 -18 c0 -11 9 -25 19 -32 20 -12 18 -38 -4
-38 -6 0 -27 -7 -45 -16 -31 -16 -34 -16 -47 2 -7 10 -11 25 -8 33 3 8 0 19
-7 24 -9 6 -8 7 4 3 10 -3 21 0 25 7 8 13 43 35 56 36 4 1 7 -8 7 -19z m-1183
-27 c-3 -10 -5 -4 -5 12 0 17 2 24 5 18 2 -7 2 -21 0 -30z m1073 7 c0 -5 -2
-10 -4 -10 -3 0 -8 5 -11 10 -3 6 -1 10 4 10 6 0 11 -4 11 -10z m1180 -64 c0
-2 -7 -7 -16 -10 -8 -3 -12 -2 -9 4 6 10 25 14 25 6z m-845 -52 c39 -23 102
-59 141 -82 72 -41 117 -80 78 -66 -10 4 -24 11 -31 16 -7 6 -16 7 -22 4 -5
-3 -22 1 -37 9 -34 17 -44 19 -44 5 0 -5 7 -10 16 -10 8 0 13 -4 10 -9 -4 -5
4 -7 16 -4 22 4 22 4 5 -10 -11 -9 -14 -18 -8 -21 5 -4 12 -2 15 3 3 5 16 7
27 4 19 -5 20 -8 7 -17 -8 -6 -15 -15 -14 -21 1 -5 -9 -11 -21 -13 -17 -2 -23
2 -23 15 0 14 -2 15 -9 5 -9 -15 -7 -17 -51 37 -20 24 -21 24 -34 5 -8 -10
-18 -16 -22 -12 -4 5 0 16 9 26 24 26 21 39 -4 16 -20 -18 -20 -18 -14 7 5 20
3 26 -12 26 -10 0 -24 -4 -30 -10 -9 -7 -13 -5 -13 7 0 9 5 16 10 16 6 0 10 5
10 10 0 6 -9 10 -21 10 -12 0 -18 4 -13 11 3 6 0 15 -7 20 -11 6 -10 9 4 15
16 6 16 7 1 19 -10 7 -14 17 -10 24 9 14 3 17 91 -35z m-835 -24 c-6 -23 -13
-40 -16 -37 -3 2 1 26 7 53 7 27 14 43 16 37 2 -6 -1 -30 -7 -53z m1735 30
c25 -27 26 -30 9 -30 -10 0 -41 -13 -69 -29 -27 -15 -131 -74 -229 -129 -98
-56 -181 -102 -182 -102 -2 0 -4 15 -4 34 0 41 14 57 78 89 26 13 63 34 82 45
53 32 274 151 281 152 3 0 18 -13 34 -30z m809 -34 c27 -35 55 -78 63 -97 19
-46 33 -109 23 -109 -17 0 -60 63 -71 103 -19 73 -42 118 -72 143 -23 19 -25
24 -10 24 10 -1 39 -28 67 -64z m-3874 33 c0 -6 -28 -50 -63 -98 -79 -107
-172 -254 -219 -346 -103 -201 -149 -512 -103 -709 9 -37 14 -70 12 -73 -3 -2
-11 21 -18 52 l-14 56 -43 -31 -42 -30 4 26 c3 14 11 33 18 42 11 13 10 15 -5
9 -11 -4 -16 -3 -12 4 4 5 15 7 26 4 13 -4 19 -2 19 9 0 10 -6 13 -15 10 -21
-9 -19 9 4 23 10 6 21 21 24 32 3 12 2 19 -2 16 -15 -9 -48 42 -55 83 -5 34
-4 40 9 36 8 -4 15 -11 16 -18 0 -6 5 0 10 13 7 17 6 27 -2 32 -8 4 -5 10 7
18 17 9 17 10 2 11 -23 0 -58 -38 -59 -64 0 -21 -1 -21 -8 -1 -11 28 -6 38 39
66 22 13 40 32 40 42 0 10 5 15 10 12 6 -3 10 -1 10 5 0 6 -10 14 -22 19 -15
5 -18 10 -9 15 6 4 18 2 26 -4 12 -10 14 -2 10 52 -3 59 -3 61 11 38 l14 -25
-6 29 c-5 21 -4 27 5 22 6 -4 11 -2 11 4 0 6 -11 8 -25 6 -14 -3 -25 0 -25 6
0 5 6 8 14 5 8 -3 17 0 19 7 4 9 -3 12 -18 10 -13 -1 -29 4 -36 12 -9 11 -8
14 6 14 14 0 15 3 5 15 -7 8 -16 13 -20 10 -4 -2 -15 4 -24 14 -16 18 -16 19
8 17 14 0 26 -4 26 -8 0 -5 5 -8 10 -8 6 0 10 5 10 11 0 6 8 18 17 27 16 16
16 16 11 -5 -7 -27 0 -29 18 -5 13 16 14 16 8 0 -3 -10 -1 -18 5 -18 6 0 11 6
11 13 0 9 2 9 8 -1 6 -8 13 -2 24 22 13 26 14 36 5 46 -9 10 -9 14 0 17 10 3
10 9 1 23 -16 24 -5 35 20 21 18 -9 23 -6 42 24 12 19 18 40 14 46 -4 7 -3 9
3 6 13 -8 167 220 170 251 2 20 -1 21 -13 12 -7 -7 -14 -8 -14 -3 0 10 57 41
78 42 6 1 12 -4 12 -10z m2730 7 c0 -11 -19 -15 -25 -6 -3 5 1 10 9 10 9 0 16
-2 16 -4z m1042 -13 c16 -20 40 -74 35 -79 -2 -2 -20 19 -40 46 -23 31 -32 50
-24 50 8 0 20 -8 29 -17z m-474 -16 c2 -10 -3 -17 -12 -17 -18 0 -29 16 -21
31 9 14 29 6 33 -14z m1357 -184 c13 -51 31 -106 40 -123 9 -16 13 -30 11 -30
-3 0 2 -16 10 -36 18 -42 8 -60 -26 -49 -17 5 -19 9 -10 15 10 6 10 12 -4 26
-14 13 -20 14 -26 5 -5 -10 -9 -9 -13 2 -3 8 -1 19 5 25 6 6 7 18 3 29 -5 10
-7 27 -6 37 2 14 -2 17 -15 12 -14 -5 -15 -4 -5 8 10 11 9 21 -2 43 -13 26
-32 100 -29 114 1 4 -3 21 -8 38 -6 21 -5 31 2 31 6 0 6 6 -2 15 -10 12 -10
18 1 31 15 18 24 -6 74 -193z m505 197 c0 -5 -5 -10 -11 -10 -5 0 -7 5 -4 10
3 6 8 10 11 10 2 0 4 -4 4 -10z m-2507 -14 c6 -16 -19 -30 -28 -16 -7 11 2 30
15 30 4 0 10 -6 13 -14z m897 4 c0 -5 -4 -10 -10 -10 -5 0 -10 5 -10 10 0 6 5
10 10 10 6 0 10 -4 10 -10z m160 -16 c0 -8 -4 -12 -10 -9 -5 3 -10 13 -10 21
0 8 5 12 10 9 6 -3 10 -13 10 -21z m-4247 9 c-7 -2 -19 -2 -25 0 -7 3 -2 5 12
5 14 0 19 -2 13 -5z m3387 -8 c0 -8 -61 -37 -67 -32 -3 3 8 12 24 21 29 16 43
19 43 11z m2287 -1 c-3 -3 -12 -4 -19 -1 -8 3 -5 6 6 6 11 1 17 -2 13 -5z m37
-40 c3 -8 2 -12 -4 -9 -6 3 -10 10 -10 16 0 14 7 11 14 -7z m-1689 -41 c3 -15
12 -32 20 -37 17 -14 32 -61 16 -52 -7 5 -9 1 -5 -8 9 -23 -13 -19 -26 4 -6
11 -17 20 -24 20 -7 0 -21 9 -30 19 -15 16 -16 23 -5 43 28 54 42 57 54 11z
m496 20 c13 -16 12 -17 -3 -4 -10 7 -18 15 -18 17 0 8 8 3 21 -13z m1031 9
c-6 -5 -19 -17 -28 -28 -8 -10 -12 -12 -8 -4 12 26 26 40 38 40 7 0 7 -3 -2
-8z m-2323 -25 c-2 -1 -13 -9 -24 -17 -19 -14 -19 -14 -6 3 7 9 18 17 24 17 6
0 8 -1 6 -3z m2404 -15 c-10 -11 -22 -17 -27 -14 -5 3 -1 11 9 19 27 19 38 16
18 -5z m-305 -52 c19 -7 62 -17 95 -21 l62 -8 -70 3 c-73 3 -155 35 -186 72
-10 12 -2 10 26 -7 22 -14 55 -31 73 -39z m-2184 16 c-10 -8 -21 -12 -24 -10
-5 6 21 24 34 24 6 0 1 -6 -10 -14z m1441 -6 c10 -11 16 -20 13 -20 -3 0 -13
9 -23 20 -10 11 -16 20 -13 20 3 0 13 -9 23 -20z m-3590 -10 c-3 -5 -16 -15
-28 -21 -19 -9 -19 -8 3 10 28 23 34 26 25 11z m4519 -99 c-10 -11 -22 54 -16
81 6 31 7 29 13 -22 3 -30 4 -57 3 -59z m121 90 c42 -5 46 -8 25 -13 -28 -8
-87 3 -116 21 -17 11 -15 11 11 6 17 -4 53 -10 80 -14z m-332 -48 c21 -11 56
-17 100 -18 40 0 66 -4 63 -10 -4 -13 -112 -9 -150 6 -34 13 -76 47 -76 61 0
5 7 2 16 -7 9 -8 30 -23 47 -32z m-682 20 c13 -16 12 -17 -3 -4 -10 7 -18 15
-18 17 0 8 8 3 21 -13z m-3681 3 c0 -2 -17 -15 -37 -29 -21 -14 -54 -39 -73
-56 -19 -16 -36 -28 -39 -26 -6 6 42 48 98 85 44 30 51 33 51 26z m2167 -38
c-3 -8 -6 -5 -6 6 -1 11 2 17 5 13 3 -3 4 -12 1 -19z m1163 -64 c32 -37 80
-60 91 -43 5 9 11 8 23 -2 42 -35 66 -65 61 -77 -3 -7 -1 -11 4 -8 9 6 71 -58
71 -73 0 -5 14 -23 32 -40 17 -17 28 -34 23 -38 -4 -5 -10 -2 -12 5 -3 6 -10
12 -16 12 -8 0 -8 -3 0 -11 6 -6 10 -17 9 -23 -2 -6 -1 -8 1 -3 7 12 23 8 23
-5 0 -7 6 -24 13 -38 8 -14 13 -36 12 -47 -2 -22 22 -40 34 -27 3 4 0 9 -6 11
-7 3 -13 9 -13 15 0 6 6 5 15 -2 25 -21 30 -2 6 19 -12 11 -18 22 -13 25 6 3
12 -1 16 -9 3 -8 10 -15 16 -15 6 0 9 4 6 9 -3 5 1 12 9 15 13 5 14 2 4 -15
-8 -15 -8 -24 0 -32 6 -6 11 -23 11 -38 0 -15 7 -32 15 -39 22 -18 -9 -44 -52
-43 -20 1 -36 -4 -39 -12 -3 -7 -14 -11 -25 -8 -13 4 -19 0 -19 -10 0 -27 23
-32 38 -9 17 26 40 29 38 5 -1 -12 6 -18 20 -17 14 0 20 -4 17 -13 -7 -17 -14
-16 -40 2 -19 13 -22 13 -27 -1 -8 -20 1 -34 22 -35 10 0 12 -3 5 -5 -7 -3 -9
-12 -6 -20 3 -8 0 -14 -6 -14 -7 0 -23 -12 -36 -27 -24 -28 -24 -28 -18 -4 4
17 3 22 -5 17 -7 -4 -12 -15 -12 -24 0 -9 -14 -30 -32 -45 -27 -23 -29 -27
-13 -26 39 3 56 -1 50 -11 -4 -6 -15 -8 -25 -5 -10 3 -22 0 -26 -6 -4 -7 -3
-9 4 -5 6 3 16 -2 21 -13 11 -20 5 -50 -10 -52 -5 -1 -15 -2 -21 -3 -15 -1
-18 -45 -5 -63 8 -12 -12 -53 -26 -53 -4 0 -6 4 -3 9 3 5 -1 14 -9 21 -13 11
-14 10 -9 -5 5 -12 4 -16 -4 -11 -6 3 -13 2 -17 -4 -3 -5 1 -10 9 -10 9 0 16
-4 16 -8 0 -9 -45 -36 -64 -38 -6 0 -18 -2 -26 -2 -8 -1 -27 -12 -41 -25 -25
-21 -26 -24 -12 -50 14 -27 13 -28 -12 -21 -16 4 -25 2 -25 -6 0 -6 -8 -10
-17 -9 -33 3 -43 -1 -43 -17 0 -11 -6 -15 -20 -11 -11 3 -20 1 -20 -4 0 -5 5
-9 11 -9 5 0 7 -4 4 -10 -3 -5 1 -10 10 -10 9 0 13 -4 10 -10 -16 -25 -69 7
-59 35 4 8 3 15 -1 15 -10 0 -34 -32 -35 -45 0 -5 5 -3 10 5 7 10 10 11 10 2
0 -7 -12 -17 -27 -23 -21 -8 -28 -7 -35 6 -13 23 -31 19 -18 -4 5 -11 7 -27 4
-36 -4 -10 -1 -21 7 -27 11 -8 10 -9 -3 -4 -10 3 -18 1 -18 -4 0 -18 -32 -10
-37 9 -8 30 -30 33 -37 5 -4 -14 -4 -29 -1 -34 3 -6 -1 -7 -9 -4 -27 10 -33
57 -8 60 4 0 14 3 22 7 8 3 24 7 34 9 11 2 21 9 24 17 3 8 0 11 -7 7 -16 -11
-53 4 -48 18 7 18 -8 42 -17 27 -4 -6 -2 -11 4 -11 6 0 8 -4 5 -10 -3 -5 -15
-10 -26 -10 -11 0 -17 -4 -14 -10 3 -5 15 -10 26 -10 12 0 17 -4 14 -11 -4 -6
-14 -8 -22 -5 -9 4 -19 -5 -28 -27 -8 -17 -14 -26 -15 -19 0 6 -7 12 -16 12
-12 0 -11 5 7 21 17 14 20 22 12 25 -7 3 -13 13 -13 22 -1 15 -2 14 -11 -2 -9
-14 -8 -20 2 -27 7 -4 10 -11 6 -15 -4 -4 -15 0 -25 9 -26 24 -33 21 -20 -7 9
-20 7 -28 -7 -43 -13 -12 -20 -14 -22 -6 -3 7 -11 9 -19 6 -8 -3 -14 0 -14 6
0 6 4 11 9 11 5 0 11 10 14 21 4 16 3 19 -5 11 -8 -8 -15 -9 -25 -1 -9 8 -13
8 -13 0 0 -6 -12 -11 -27 -12 -16 0 -22 -3 -15 -6 6 -2 12 -9 12 -14 0 -6 -8
-6 -19 1 -11 5 -27 7 -35 4 -12 -5 -15 -2 -10 10 6 15 -4 21 -33 17 -7 -1 -13
5 -13 13 0 8 -4 17 -8 20 -5 3 -9 -8 -9 -24 0 -26 4 -29 24 -26 13 3 23 0 23
-5 0 -5 -4 -9 -10 -9 -5 0 -10 -4 -10 -9 0 -6 -11 -22 -25 -37 -18 -19 -25
-23 -25 -11 0 8 7 22 15 31 16 16 21 31 7 22 -5 -3 -16 4 -26 15 -14 16 -20
18 -32 9 -20 -17 -18 -30 6 -30 11 0 20 -7 20 -15 0 -12 -5 -13 -27 -4 -14 5
-39 7 -55 4 -30 -7 -38 9 -18 33 6 6 7 9 3 7 -4 -3 -12 5 -19 17 -12 22 -13
22 -20 4 -5 -12 -3 -21 4 -24 14 -4 -5 -49 -25 -56 -11 -5 -14 1 -11 24 1 17
-2 34 -7 38 -11 7 -43 85 -68 162 -27 83 -48 197 -45 241 l3 44 60 13 c33 8
78 21 100 30 43 17 94 60 95 78 0 7 6 24 14 38 27 53 -23 133 -143 228 -32 26
-34 29 -21 53 7 13 21 33 30 42 9 10 32 43 51 73 58 90 130 140 289 200 25 10
59 23 76 31 32 12 32 12 89 -50 32 -34 71 -69 86 -76 25 -13 29 -13 53 12 14
14 27 37 28 52 1 14 2 34 2 44 2 22 28 39 53 35 10 -2 23 11 37 38 l21 41 15
-27 c8 -15 26 -40 40 -56z m831 43 c-10 -9 -11 -8 -5 6 3 10 9 15 12 12 3 -3
0 -11 -7 -18z m-2716 -7 c3 -5 -1 -10 -9 -10 -9 0 -16 5 -16 10 0 6 4 10 9 10
6 0 13 -4 16 -10z m2390 -25 c-2 -14 1 -25 6 -25 5 0 9 -10 9 -22 0 -15 -3
-19 -10 -12 -14 14 -28 66 -23 82 8 21 20 4 18 -23z m-4785 15 c0 -5 -4 -10
-10 -10 -5 0 -10 5 -10 10 0 6 5 10 10 10 6 0 10 -4 10 -10z m2472 -32 c14 -7
32 -27 39 -45 7 -18 16 -30 21 -27 14 9 9 -9 -9 -28 -19 -22 -41 -25 -23 -3
17 21 -4 19 -26 -2 -16 -16 -16 -16 -10 4 4 12 2 24 -4 28 -6 3 -7 11 -4 17 4
6 -1 6 -14 -1 -29 -16 -37 -14 -21 5 8 9 12 27 11 40 -4 27 3 29 40 12z
m-1735 -78 c-93 -97 -193 -269 -212 -366 -17 -87 -35 -225 -35 -268 0 -27 -7
-116 -16 -197 -9 -81 -14 -154 -11 -162 7 -20 92 -39 141 -33 25 4 34 3 22 -2
-13 -6 7 -14 75 -30 52 -12 119 -29 149 -38 30 -8 69 -12 85 -9 22 4 26 2 15
-5 -11 -7 -3 -9 26 -4 33 5 47 1 79 -21 47 -31 56 -40 32 -32 -9 4 -39 9 -64
13 -26 3 -57 10 -68 14 -39 15 -398 99 -486 114 -31 5 -36 10 -32 29 2 12 12
130 23 262 27 337 58 451 166 615 52 79 156 198 161 183 2 -5 -21 -33 -50 -63z
m2883 26 c0 -9 -7 -12 -20 -9 -11 3 -20 9 -20 14 0 5 9 9 20 9 11 0 20 -6 20
-14z m1203 -23 c4 -3 2 -11 -4 -19 -10 -12 -10 -14 1 -12 7 2 16 -9 21 -24 5
-19 4 -28 -4 -29 -8 0 -8 -2 1 -6 6 -2 12 -11 12 -19 0 -8 5 -14 10 -14 14 0
13 -43 -2 -58 -9 -9 -9 -12 1 -12 7 0 9 -5 5 -11 -11 -18 -25 5 -27 45 -1 23
-6 35 -14 32 -6 -3 -12 3 -12 12 0 17 -8 57 -12 57 -1 0 -3 9 -4 20 -2 11 -6
28 -10 38 -6 14 -4 16 11 11 11 -4 23 -9 27 -11z m-4800 -20 c3 -17 0 -34 -9
-43 -12 -12 -14 -9 -12 28 2 48 13 56 21 15z m3103 -85 c4 -53 2 -67 -12 -79
-16 -13 -16 -12 -6 8 7 13 10 46 7 84 -3 35 -3 61 0 57 3 -3 8 -34 11 -70z
m-2927 53 c10 -7 7 -9 -12 -8 -15 1 -27 5 -27 10 0 10 22 9 39 -2z m1626 -50
c-7 -6 -45 40 -45 53 1 6 12 -2 25 -19 13 -16 22 -31 20 -34z m155 45 c0 -13
-128 -81 -370 -196 -151 -72 -328 -157 -392 -188 l-117 -56 37 -34 c20 -18 56
-52 79 -74 l41 -40 92 48 c51 27 95 54 97 61 3 6 11 9 18 7 7 -3 50 14 96 37
63 32 78 44 62 47 -12 2 -27 10 -33 18 -16 18 -11 18 30 -2 l32 -17 211 107
c197 100 306 150 314 142 8 -7 -113 -79 -252 -148 -83 -42 -220 -111 -305
-155 -85 -44 -197 -101 -248 -127 l-93 -47 30 -24 c16 -14 32 -25 37 -25 4 0
20 -14 35 -32 22 -23 26 -35 18 -44 -9 -11 -18 -10 -47 5 -49 25 -115 88 -107
100 3 6 -79 -31 -182 -80 -103 -50 -208 -100 -233 -111 -73 -32 -76 -37 -35
-70 19 -16 35 -34 35 -39 0 -17 -25 -9 -38 12 -7 12 -16 19 -19 16 -2 -3 -13
3 -24 14 -10 10 -27 19 -36 19 -15 0 -14 -2 3 -15 17 -13 17 -14 2 -15 -21 0
-43 36 -28 45 16 10 12 22 -21 60 -46 52 -26 56 26 5 l44 -44 50 24 c28 13 47
28 44 33 -4 6 -1 7 6 2 7 -4 23 -3 34 3 113 54 315 153 325 160 9 6 -9 29 -62
83 l-74 74 -84 -50 c-45 -28 -119 -73 -163 -99 -44 -27 -96 -60 -115 -75 -50
-37 -111 -64 -123 -52 -6 6 3 15 22 26 l32 16 -30 54 c-18 31 -27 57 -21 60
15 10 28 -3 51 -48 12 -23 23 -43 24 -45 4 -4 180 103 302 183 72 48 92 65 80
71 -30 18 -70 75 -59 86 7 7 24 -3 57 -33 l47 -44 72 38 c114 59 707 332 786
362 43 17 40 16 40 11z m3312 -11 c0 -8 1 -21 2 -27 1 -7 8 -19 16 -26 13 -11
13 -12 0 -10 -20 4 -53 54 -45 68 9 15 25 12 27 -5z m-5202 -15 c0 -5 -5 -10
-11 -10 -5 0 -7 5 -4 10 3 6 8 10 11 10 2 0 4 -4 4 -10z m6107 -12 c-3 -8 -6
-5 -6 6 -1 11 2 17 5 13 3 -3 4 -12 1 -19z m-6497 -98 c0 -5 -7 -10 -15 -10
-8 0 -15 5 -15 10 0 6 7 10 15 10 8 0 15 -4 15 -10z m2230 -32 c0 -14 -17 -8
-35 12 -17 19 -17 19 9 7 14 -7 26 -15 26 -19z m3405 22 c-3 -5 -12 -10 -18
-10 -7 0 -6 4 3 10 19 12 23 12 15 0z m-710 -20 c27 -30 12 -34 -15 -5 -13 14
-19 25 -13 25 5 0 18 -9 28 -20z m291 -56 c-3 -8 -13 -14 -23 -14 -17 1 -16 2
1 15 19 15 19 15 -5 16 -17 1 -19 3 -6 6 9 2 17 9 17 14 0 5 -8 9 -17 9 -15 0
-16 2 -3 10 11 7 18 3 28 -16 8 -14 11 -32 8 -40z m-2123 4 c21 -42 15 -98 -9
-98 -8 0 -14 4 -14 9 0 4 -10 21 -22 37 -12 15 -23 34 -25 42 -1 8 -7 18 -14
22 -20 13 -1 28 34 27 26 -2 35 -8 50 -39z m4307 26 c0 -17 -22 -14 -28 4 -2
7 3 12 12 12 9 0 16 -7 16 -16z m-4233 -121 c-14 -49 -37 -116 -52 -148 -40
-88 -86 -178 -100 -195 -7 -8 -20 -30 -29 -47 -18 -36 -134 -157 -211 -219
-284 -232 -779 -338 -1155 -248 -71 17 -73 18 -40 25 l35 6 -30 3 c-28 2 -27
3 15 16 37 12 58 12 117 3 97 -16 393 -6 493 16 166 36 343 112 467 201 67 48
166 143 219 210 45 56 114 190 134 258 3 12 16 20 35 22 36 4 49 20 71 93 19
62 47 117 52 102 2 -5 -8 -49 -21 -98z m1894 54 c-15 -15 -24 -2 -16 24 7 20
8 21 17 5 7 -12 7 -21 -1 -29z m1139 -17 c14 -34 25 -38 39 -12 8 13 10 8 11
-26 0 -26 4 -41 10 -37 6 3 10 -1 10 -9 0 -8 5 -18 12 -22 7 -5 9 -2 5 9 -4
11 -2 14 9 10 8 -3 13 -12 10 -19 -3 -9 1 -14 12 -14 13 0 14 -2 3 -9 -11 -7
-11 -9 0 -14 11 -3 9 -9 -6 -21 -18 -14 -18 -15 -2 -16 9 0 16 -6 15 -12 -2
-7 5 -12 15 -12 21 2 22 -12 1 -24 -19 -11 -27 -58 -14 -82 6 -11 4 -25 -7
-40 -12 -17 -13 -25 -5 -28 7 -2 12 -8 12 -13 0 -4 -6 -6 -13 -4 -9 4 -12 -26
-12 -132 -1 -154 -7 -219 -25 -263 -13 -31 -30 -40 -30 -16 0 8 12 52 26 98
25 77 26 92 21 203 -7 132 -32 245 -91 410 -35 98 -44 141 -27 131 4 -3 14
-19 21 -36z m-3810 20 c0 -5 -7 -10 -16 -10 -8 0 -12 5 -9 10 3 6 10 10 16 10
5 0 9 -4 9 -10z m2820 0 c0 -5 -5 -10 -11 -10 -5 0 -7 5 -4 10 3 6 8 10 11 10
2 0 4 -4 4 -10z m-5485 -29 c3 -5 29 -21 58 -34 40 -18 69 -43 121 -105 37
-45 75 -82 84 -82 8 0 24 7 34 17 22 20 24 6 2 -25 -33 -47 -115 -66 -181 -41
-34 12 -90 64 -109 101 -8 15 -14 49 -14 77 0 27 -4 61 -10 75 -9 25 2 37 15
17z m2689 -7 c11 -27 7 -49 -5 -37 -6 6 -18 9 -25 6 -8 -3 -14 0 -14 7 0 6 5
8 12 4 8 -5 9 0 6 14 -7 26 16 31 26 6z m42 -10 c-4 -10 3 -14 19 -14 14 0 25
-5 25 -10 0 -6 6 -10 13 -9 6 1 22 1 35 0 21 -1 22 -3 8 -16 -8 -8 -19 -15
-24 -15 -6 0 -12 -7 -16 -15 -4 -13 -2 -14 14 -5 16 9 24 7 37 -5 9 -10 25
-14 37 -11 12 3 28 1 36 -4 12 -8 10 -10 -10 -10 -24 0 -23 -1 10 -22 19 -12
39 -21 44 -20 4 2 13 -1 20 -6 18 -14 75 -22 81 -12 3 6 15 10 25 10 10 0 24
8 29 18 8 13 10 14 11 2 0 -9 6 -4 13 10 7 14 20 26 30 28 15 3 15 0 2 -39
-26 -72 -74 -149 -90 -142 -9 3 -15 -1 -15 -8 0 -11 -3 -11 -10 1 -13 20 -13
4 0 -20 8 -15 3 -27 -25 -60 -48 -58 -134 -134 -142 -126 -4 4 4 14 16 23 21
14 22 17 6 25 -9 6 -19 7 -22 4 -4 -3 -1 -6 5 -6 7 0 12 -5 12 -11 0 -6 -6 -9
-14 -6 -9 4 -13 -3 -12 -21 1 -20 -4 -26 -22 -27 -12 -1 -28 -8 -35 -15 -10
-10 -7 -10 13 0 23 11 24 11 9 -4 -9 -9 -25 -18 -37 -19 -12 -1 -22 -5 -22 -9
0 -10 -128 -70 -210 -98 -37 -13 -88 -23 -120 -23 -33 0 -47 -3 -35 -7 31 -11
-148 -30 -261 -28 l-99 2 90 6 c82 6 84 6 28 8 -35 1 -63 5 -63 10 0 4 30 7
68 6 37 -1 57 0 45 3 -12 2 -27 11 -35 20 -11 15 -10 16 12 9 14 -4 41 -9 60
-12 28 -3 31 -2 15 6 -18 9 -18 9 5 7 20 -2 29 5 42 32 18 34 15 59 -2 31 -6
-9 -10 -10 -10 -3 0 6 5 15 11 19 8 4 8 9 0 17 -6 6 -11 18 -11 26 1 9 10 -1
21 -22 11 -21 17 -43 13 -49 -5 -8 -2 -9 10 -5 10 4 15 3 11 -3 -3 -5 3 -15
15 -22 11 -7 20 -17 20 -22 0 -6 -5 -5 -12 2 -15 15 -32 16 -23 2 3 -5 2 -10
-4 -10 -16 0 -22 18 -9 23 7 2 10 8 6 12 -11 11 -39 -15 -36 -33 2 -11 21 -15
75 -16 40 -1 65 2 55 5 -25 9 -45 36 -39 51 4 8 6 7 6 -4 1 -15 5 -16 26 -6
14 6 25 18 25 25 0 12 -3 11 -16 -2 -18 -18 -30 -13 -18 7 4 7 7 31 6 53 l-3
40 26 -28 c14 -15 25 -37 25 -48 0 -10 5 -19 10 -19 15 0 12 53 -5 77 -14 20
-13 21 16 25 20 3 33 0 38 -10 5 -9 15 -13 26 -8 14 5 15 9 5 20 -8 11 -8 20
-1 35 6 11 11 31 11 45 0 25 -2 26 -68 26 -41 0 -73 5 -81 13 -10 10 -15 8
-25 -6 -12 -15 -15 -15 -26 -3 -6 9 -9 19 -6 25 3 5 1 11 -6 13 -8 3 -6 7 5
11 10 4 16 2 14 -6 -1 -8 11 -12 37 -11 21 1 33 -2 26 -6 -22 -14 7 -21 75
-18 36 1 65 6 65 10 0 12 38 10 45 -2 9 -14 -14 -42 -28 -33 -5 3 -7 1 -4 -4
4 -6 18 -8 32 -5 16 3 25 0 25 -8 0 -7 -8 -10 -20 -7 -23 6 -25 4 -34 -38 -5
-25 -4 -28 6 -14 14 16 93 41 102 31 12 -12 -17 -32 -39 -26 -13 3 -26 1 -29
-5 -4 -6 0 -11 9 -11 9 0 13 -4 10 -10 -3 -5 1 -10 9 -10 9 0 16 4 16 9 0 4
11 6 25 3 18 -3 25 0 25 12 0 9 5 16 10 16 6 0 10 -9 10 -19 0 -10 7 -21 15
-25 15 -5 19 4 16 36 -1 9 7 19 19 23 27 9 20 31 -9 27 -25 -4 -54 15 -45 29
3 5 10 7 15 4 5 -4 9 -2 9 4 0 5 12 11 28 13 21 2 29 10 37 36 5 17 13 32 17
32 4 0 8 6 8 14 0 7 -17 20 -37 28 l-38 15 42 7 c46 8 69 29 75 66 2 19 -4 28
-25 38 -25 12 -35 12 -73 -3 -24 -9 -51 -23 -58 -31 -8 -8 -20 -14 -26 -14
-22 0 4 23 54 47 l51 24 -49 -6 c-27 -3 -54 -9 -60 -12 -6 -4 -5 0 2 9 20 25
-23 36 -49 12 -18 -16 -19 -16 -19 2 0 12 -3 15 -8 8 -5 -9 -11 -8 -20 2 -11
12 -9 14 12 14 39 0 58 27 54 75 -2 32 0 41 10 37 7 -2 11 -11 8 -18z m-2208
-18 c4 -18 -27 -48 -40 -40 -12 8 -9 39 4 52 16 16 32 10 36 -12z m4985 9 c-3
-9 -2 -15 3 -14 20 3 28 -2 15 -10 -9 -6 -19 -5 -26 2 -13 12 -9 37 6 37 4 0
6 -7 2 -15z m-4868 -26 c-8 -12 -35 -12 -35 0 0 11 22 20 33 14 4 -2 5 -9 2
-14z m6585 5 c0 -2 -7 -4 -15 -4 -8 0 -15 4 -15 10 0 5 7 7 15 4 8 -4 15 -8
15 -10z m-7460 -4 c0 -5 -4 -10 -10 -10 -5 0 -10 5 -10 10 0 6 5 10 10 10 6 0
10 -4 10 -10z m2184 -16 c3 -8 2 -12 -4 -9 -6 3 -10 10 -10 16 0 14 7 11 14
-7z m-58 -13 c-4 -5 -1 -11 5 -13 7 -2 -6 -4 -27 -5 l-39 -1 30 13 c38 17 37
17 31 6z m3634 -5 c0 -8 6 -17 13 -19 9 -4 9 -6 0 -6 -7 -1 -17 8 -23 19 -7
14 -7 20 0 20 5 0 10 -6 10 -14z m1170 10 c0 -3 -4 -8 -10 -11 -5 -3 -10 -1
-10 4 0 6 5 11 10 11 6 0 10 -2 10 -4z m-4134 -42 c-9 -8 -16 -19 -16 -22 0
-14 -39 -32 -45 -22 -4 6 -1 9 6 8 7 -2 24 14 38 35 14 21 27 34 29 28 2 -6
-4 -18 -12 -27z m314 26 c0 -5 -4 -10 -10 -10 -5 0 -10 5 -10 10 0 6 5 10 10
10 6 0 10 -4 10 -10z m400 -44 c0 -28 -52 -136 -63 -129 -6 3 -7 1 -3 -5 8
-14 -62 -125 -74 -117 -6 3 -8 0 -5 -7 6 -16 -18 -49 -38 -52 -23 -3 -46 -26
-41 -41 8 -20 -158 -140 -271 -194 -189 -92 -380 -134 -608 -134 -90 0 -142 4
-150 12 -8 8 -5 11 12 11 19 0 21 3 11 15 -10 12 -3 14 48 12 34 0 58 -5 56
-9 -3 -4 1 -6 8 -3 7 2 66 9 131 15 178 16 369 71 506 146 49 27 55 29 45 12
-4 -7 -3 -8 5 -4 6 4 9 11 6 16 -3 4 10 17 28 27 17 11 66 52 108 91 42 39 80
68 84 64 5 -4 5 -2 1 5 -7 12 59 108 74 108 5 0 12 4 17 9 5 5 3 6 -4 2 -18
-10 -16 7 4 49 9 20 22 34 29 31 6 -2 17 8 23 22 10 24 10 25 -2 10 -23 -29
-28 -20 -10 17 13 28 23 35 45 35 18 0 28 -5 28 -14z m-663 -18 c-3 -8 -6 -5
-6 6 -1 11 2 17 5 13 3 -3 4 -12 1 -19z m-317 2 c0 -5 -2 -10 -4 -10 -3 0 -8
5 -11 10 -3 6 -1 10 4 10 6 0 11 -4 11 -10z m193 -24 c4 -11 1 -13 -10 -9 -10
4 -14 2 -10 -4 7 -11 -31 -23 -88 -29 -25 -3 -27 -2 -12 7 9 5 20 8 25 6 5 -3
68 27 88 42 1 1 4 -6 7 -13z m2797 -6 c0 -5 -5 -10 -11 -10 -5 0 -7 5 -4 10 3
6 8 10 11 10 2 0 4 -4 4 -10z m-2385 -20 c-3 -5 -12 -7 -19 -4 -8 3 -30 -2
-51 -10 -37 -16 -63 -21 -53 -11 3 3 29 14 59 24 52 19 75 19 64 1z m-570 -10
c-17 -6 -17 -7 6 -14 21 -7 21 -9 6 -13 -11 -3 -27 4 -37 15 -23 24 -18 31 17
24 24 -4 25 -6 8 -12z m322 14 c-3 -3 -12 -4 -19 -1 -8 3 -5 6 6 6 11 1 17 -2
13 -5z m-33 -20 c8 -22 7 -34 -3 -34 -5 0 -11 11 -13 25 -6 28 6 34 16 9z
m-278 -35 c10 0 13 -3 7 -6 -17 -6 -16 -32 1 -39 17 -7 9 -44 -10 -44 -16 0
-19 16 -4 23 6 3 5 4 -2 3 -7 -2 -22 4 -32 13 -18 15 -18 15 -8 -5 7 -12 26
-42 45 -65 39 -52 97 -138 97 -145 0 -16 -20 1 -30 27 -8 17 -40 63 -72 101
-32 38 -58 76 -58 83 0 10 -5 11 -24 2 -13 -7 -23 -14 -21 -17 2 -3 -8 -5 -21
-5 -22 0 -23 1 -7 13 9 6 21 12 26 12 5 0 22 9 38 21 23 16 28 26 23 42 -6 21
-6 21 13 5 11 -10 28 -18 39 -19z m254 10 c0 -6 -4 -7 -10 -4 -5 3 -10 11 -10
16 0 6 5 7 10 4 6 -3 10 -11 10 -16z m-1963 -21 c-3 -7 -5 -2 -5 12 0 14 2 19
5 13 2 -7 2 -19 0 -25z m1948 -7 c-6 -5 -25 10 -25 20 0 5 6 4 14 -3 8 -7 12
-15 11 -17z m129 10 c7 -10 -22 -37 -30 -28 -9 8 3 37 15 37 5 0 12 -4 15 -9z
m2531 -1 c3 -5 -1 -10 -9 -10 -8 0 -18 5 -21 10 -3 6 1 10 9 10 8 0 18 -4 21
-10z m-2687 -18 c2 -7 -2 -10 -12 -6 -9 3 -16 11 -16 16 0 13 23 5 28 -10z
m-178 -2 c8 -5 11 -10 5 -10 -5 0 -17 5 -25 10 -8 5 -10 10 -5 10 6 0 17 -5
25 -10z m386 -15 c-9 -9 -16 -13 -16 -8 0 12 22 34 28 28 2 -2 -3 -11 -12 -20z
m4024 15 c0 -5 -4 -10 -10 -10 -5 0 -10 5 -10 10 0 6 5 10 10 10 6 0 10 -4 10
-10z m-4116 -50 c11 -14 14 -19 6 -12 -19 16 -31 15 -24 -2 6 -15 -44 -37 -80
-35 -16 1 -14 3 9 10 17 6 37 11 45 13 11 2 15 14 13 42 0 21 1 32 4 24 3 -8
15 -26 27 -40z m2530 35 c-7 -16 -24 -21 -24 -6 0 8 7 13 27 20 1 1 0 -6 -3
-14z m-2364 -56 c0 -26 -17 -24 -23 4 -2 12 -8 31 -12 42 -6 17 -4 17 14 -4
12 -13 21 -32 21 -42z m-2410 37 c0 -8 -4 -17 -9 -21 -12 -7 -24 12 -16 25 9
15 25 12 25 -4z m2296 5 c-6 -9 21 -24 32 -17 4 2 13 -3 21 -11 12 -13 11 -14
-10 -9 -47 14 -70 29 -57 38 17 10 20 10 14 -1z m356 -23 c-7 -7 -12 -8 -12
-2 0 14 12 26 19 19 2 -3 -1 -11 -7 -17z m-542 8 c0 -11 -19 -15 -25 -6 -3 5
1 10 9 10 9 0 16 -2 16 -4z m-296 -32 c3 -8 2 -12 -4 -9 -6 3 -10 10 -10 16 0
14 7 11 14 -7z m5094 -26 c-12 -56 -31 -84 -69 -104 -39 -20 -93 -11 -134 22
-36 29 -29 47 31 82 31 18 51 22 98 19 41 -2 60 1 63 10 12 31 20 9 11 -29z
m-2134 25 c-5 -5 -12 -12 -16 -18 -4 -6 -8 -2 -8 8 0 9 7 17 17 17 9 0 12 -3
7 -7z m1421 -3 c3 -6 -1 -7 -9 -4 -18 7 -21 14 -7 14 6 0 13 -4 16 -10z
m-3920 -10 c-3 -5 -11 -10 -16 -10 -6 0 -7 5 -4 10 3 6 11 10 16 10 6 0 7 -4
4 -10z m65 -13 c13 -5 13 -6 -1 -6 -8 -1 -24 6 -35 15 -19 15 -19 15 1 6 11
-5 27 -12 35 -15z m-513 -29 c-3 -8 -6 -5 -6 6 -1 11 2 17 5 13 3 -3 4 -12 1
-19z m470 7 c0 -8 -6 -16 -14 -19 -7 -3 -13 1 -13 8 0 8 6 17 13 19 6 3 12 6
13 6 0 1 1 -6 1 -14z m33 -4 c0 -6 -4 -12 -8 -15 -5 -3 -9 1 -9 9 0 8 4 15 9
15 4 0 8 -4 8 -9z m-429 -32 c4 -13 7 -18 8 -10 1 8 4 12 7 9 3 -4 -2 -19 -11
-35 -10 -18 -14 -21 -10 -7 3 11 -2 29 -10 40 -18 23 -19 37 -3 32 7 -3 15
-15 19 -29z m2869 21 c0 -5 -5 -10 -11 -10 -5 0 -7 5 -4 10 3 6 8 10 11 10 2
0 4 -4 4 -10z m-2630 -24 c0 -21 -21 -33 -70 -40 -43 -6 -44 -6 -20 8 16 10
20 16 10 16 -8 1 3 7 25 15 53 17 55 17 55 1z m-2030 -5 c0 -5 -9 -11 -20 -14
-31 -8 -33 -9 -54 -29 -11 -10 -25 -18 -32 -18 -6 0 -22 -8 -35 -18 -25 -20
-125 -73 -435 -233 -105 -55 -242 -125 -304 -158 l-113 -58 0 -99 0 -99 -6
103 c-5 84 -9 105 -23 113 -21 12 -24 31 -4 23 7 -3 51 9 96 27 112 43 703
340 816 410 30 18 104 57 112 59 1 0 2 -4 2 -9z m1910 -11 c0 -5 -2 -10 -4
-10 -3 0 -8 5 -11 10 -3 6 -1 10 4 10 6 0 11 -4 11 -10z m635 -9 c-3 -6 -11
-11 -17 -11 -6 0 -6 6 2 15 14 17 26 13 15 -4z m-686 -41 c4 0 8 -7 8 -15 0
-8 -4 -15 -9 -15 -5 0 -6 -11 -2 -25 3 -14 2 -25 -4 -25 -19 0 -32 28 -30 68
1 35 3 38 15 26 8 -8 18 -14 22 -14z m2721 20 c0 -5 -2 -10 -4 -10 -3 0 -8 5
-11 10 -3 6 -1 10 4 10 6 0 11 -4 11 -10z m-3890 -25 c20 -24 6 -28 -15 -5
-10 11 -13 20 -8 20 6 0 16 -7 23 -15z m830 -6 c12 -8 11 -9 -6 -4 -13 3 -26
-1 -34 -10 -7 -8 -17 -15 -22 -15 -10 0 32 39 42 40 3 0 12 -5 20 -11z m4366
-54 c1 -16 4 -48 7 -70 3 -22 8 -82 12 -132 4 -51 11 -93 17 -93 5 0 6 -6 1
-12 -4 -7 -7 -80 -6 -163 l1 -150 -9 125 c-4 69 -18 215 -29 325 -11 110 -20
209 -20 220 1 20 1 20 12 0 7 -11 13 -33 14 -50z m1214 55 c0 -5 -4 -10 -10
-10 -5 0 -10 5 -10 10 0 6 5 10 10 10 6 0 10 -4 10 -10z m-6419 -53 c-10 -9
-11 -8 -5 6 3 10 9 15 12 12 3 -3 0 -11 -7 -18z m849 19 c0 -3 -4 -8 -10 -11
-5 -3 -10 -1 -10 4 0 6 5 11 10 11 6 0 10 -2 10 -4z m-161 -20 c9 -11 5 -16
-21 -25 -31 -10 -32 -10 -13 5 17 13 18 16 5 24 -13 8 -13 10 1 10 9 0 22 -6
28 -14z m351 10 c0 -3 -4 -8 -10 -11 -5 -3 -10 -1 -10 4 0 6 5 11 10 11 6 0
10 -2 10 -4z m4204 -56 c6 -8 1 -7 -11 4 -13 10 -20 23 -16 29 4 7 8 6 11 -3
3 -8 10 -22 16 -30z m-5194 -5 c19 -23 8 -25 -14 -4 -11 11 -15 19 -9 19 6 0
16 -7 23 -15z m996 -4 c-10 -11 -15 -25 -11 -30 3 -6 1 -11 -4 -11 -15 0 -14
47 2 53 25 11 30 6 13 -12z m2724 9 c0 -5 -4 -10 -10 -10 -5 0 -10 -6 -10 -14
0 -16 -27 -29 -41 -20 -19 11 -9 35 14 32 13 -2 21 2 20 10 -2 6 4 12 12 12 8
0 15 -4 15 -10z m100 -19 c0 -12 -20 -25 -27 -18 -7 7 6 27 18 27 5 0 9 -4 9
-9z m-2930 -41 c0 -5 -10 -10 -22 -9 -22 0 -22 1 -3 9 11 5 21 9 23 9 1 1 2
-3 2 -9z m-60 -24 c0 -2 -7 -7 -16 -10 -8 -3 -12 -2 -9 4 6 10 25 14 25 6z
m2870 -6 c0 -5 -2 -10 -4 -10 -3 0 -8 5 -11 10 -3 6 -1 10 4 10 6 0 11 -4 11
-10z m1548 -45 c0 -16 -2 -15 -8 5 -11 34 -11 60 0 35 5 -11 8 -29 8 -40z
m-1603 35 c8 -13 -5 -13 -25 0 -13 8 -13 10 2 10 9 0 20 -4 23 -10z m-3135 -4
c0 -2 -7 -7 -16 -10 -8 -3 -12 -2 -9 4 6 10 25 14 25 6z m3070 -6 c0 -5 -5
-10 -11 -10 -5 0 -7 -4 -4 -10 3 -5 1 -10 -4 -10 -12 0 -15 23 -4 33 10 10 23
8 23 -3z m-3289 -15 c24 -10 28 -14 14 -14 -11 0 -29 6 -39 14 -25 19 -17 19
25 0z m362 8 c-7 -2 -19 -2 -25 0 -7 3 -2 5 12 5 14 0 19 -2 13 -5z m3037 0
c0 -17 -19 -37 -27 -29 -4 5 -2 11 5 13 6 3 10 9 6 14 -3 5 0 9 5 9 6 0 11 -3
11 -7z m-53 -20 c-12 -11 -47 -10 -47 1 0 9 9 12 25 8 14 -2 24 -6 22 -9z
m-3219 -7 c20 -10 21 -14 9 -24 -12 -10 -18 -8 -31 13 -18 28 -13 31 22 11z
m329 8 c-3 -3 -12 -4 -19 -1 -8 3 -5 6 6 6 11 1 17 -2 13 -5z m-64 -11 c-7 -2
-19 -2 -25 0 -7 3 -2 5 12 5 14 0 19 -2 13 -5z m3007 -23 c0 -5 -5 -10 -11
-10 -5 0 -7 5 -4 10 3 6 8 10 11 10 2 0 4 -4 4 -10z m-190 -18 c0 -5 -10 -13
-23 -19 -17 -8 -28 -7 -42 3 -10 8 -14 14 -9 14 6 0 15 -5 21 -11 8 -8 15 -6
24 5 15 17 29 21 29 8z m-3019 -31 c15 -6 18 -10 8 -10 -9 -1 -25 7 -36 17
-10 9 -14 14 -8 10 6 -4 22 -12 36 -17z m2619 5 c0 -11 -19 -15 -25 -6 -3 5 1
10 9 10 9 0 16 -2 16 -4z m453 -3 c-7 -2 -19 -2 -25 0 -7 3 -2 5 12 5 14 0 19
-2 13 -5z m-3016 -19 c-3 -3 -12 -4 -19 -1 -8 3 -5 6 6 6 11 1 17 -2 13 -5z
m2789 -18 c8 -8 14 -18 14 -22 0 -4 -3 -4 -7 -1 -3 4 -11 -3 -17 -15 -6 -12
-18 -24 -26 -26 -11 -4 -10 0 3 16 12 13 16 28 12 41 -7 24 1 27 21 7z m3205
-32 c88 -39 108 -44 143 -38 l41 6 -29 -23 -28 -22 -122 61 c-66 33 -118 61
-114 61 5 1 54 -20 109 -45z m-3456 15 c-6 -18 -4 -20 17 -14 18 5 20 4 8 -4
-19 -13 -50 -14 -50 -2 0 18 12 41 22 41 5 0 6 -9 3 -21z m185 0 c0 -5 -4 -9
-10 -9 -5 0 -10 7 -10 16 0 8 5 12 10 9 6 -3 10 -10 10 -16z m130 0 c0 -5 -7
-9 -15 -9 -15 0 -20 12 -9 23 8 8 24 -1 24 -14z m-520 1 c0 -5 -7 -10 -15 -10
-8 0 -15 5 -15 10 0 6 7 10 15 10 8 0 15 -4 15 -10z m100 -9 c0 -5 -7 -11 -15
-15 -9 -3 -15 0 -15 9 0 8 7 15 15 15 8 0 15 -4 15 -9z m61 -40 l-6 -26 -3 28
c-2 15 -8 27 -13 27 -5 0 -9 5 -9 10 0 6 7 6 18 -1 14 -9 17 -19 13 -38z
m3117 9 c23 -7 42 -17 42 -21 0 -4 -14 -4 -30 1 -34 10 -115 0 -145 -18 -13
-8 -15 -11 -5 -12 10 0 11 -3 3 -11 -6 -6 -9 -18 -6 -27 4 -10 2 -13 -5 -8 -7
4 -12 2 -12 -3 0 -6 4 -11 9 -11 6 0 22 -11 36 -24 l27 -25 -33 12 c-18 7 -41
26 -52 45 -16 27 -25 32 -58 32 -21 0 -39 3 -39 8 0 10 64 60 92 72 28 12 118
7 176 -10z m65 -30 c-5 -19 -23 -39 -23 -25 0 9 20 45 24 45 2 0 2 -9 -1 -20z
m-3138 -20 c3 -6 -1 -7 -9 -4 -18 7 -21 14 -7 14 6 0 13 -4 16 -10z m-3982
-40 c38 -18 95 -60 128 -91 51 -49 59 -61 50 -77 -24 -44 -120 -53 -176 -16
-32 21 -55 73 -55 126 0 23 -7 56 -15 71 -8 16 -11 27 -7 25 4 -2 38 -19 75
-38z m7574 8 c-3 -8 -6 -5 -6 6 -1 11 2 17 5 13 3 -3 4 -12 1 -19z m-4272
-164 c21 -75 24 -99 14 -108 -9 -8 -10 -7 -6 7 4 9 3 17 -2 17 -4 0 -23 46
-41 103 -47 146 -44 135 -31 117 9 -13 11 -12 11 5 1 31 25 -29 55 -141z
m-125 49 c0 -24 -18 -13 -24 15 -4 15 -9 36 -12 47 -2 11 4 4 15 -15 11 -19
20 -41 21 -47z m-42 -76 c17 -41 15 -46 -6 -14 -10 15 -21 25 -23 22 -3 -3 -6
21 -6 53 l0 57 11 -45 c7 -25 18 -58 24 -73z m51 13 c0 -10 -3 -8 -9 5 -12 27
-12 43 0 25 5 -8 9 -22 9 -30z m556 20 c3 -6 -1 -13 -10 -16 -19 -8 -30 0 -20
15 8 14 22 14 30 1z m390 -9 c3 -5 1 -12 -5 -16 -5 -3 -10 1 -10 9 0 18 6 21
15 7z m-285 -26 c0 -8 -4 -15 -10 -15 -5 0 -10 7 -10 15 0 8 5 15 10 15 6 0
10 -7 10 -15z m-740 -24 c0 -7 -64 -41 -77 -41 -3 0 2 9 12 20 10 12 25 18 32
16 7 -3 12 -2 12 2 -3 16 2 23 11 17 6 -3 10 -10 10 -14z m87 -3 c-3 -8 -6 -5
-6 6 -1 11 2 17 5 13 3 -3 4 -12 1 -19z m763 -27 c0 -6 -4 -13 -10 -16 -5 -3
-10 1 -10 9 0 9 5 16 10 16 6 0 10 -4 10 -9z m-695 -21 c-3 -5 -10 -10 -16
-10 -5 0 -9 5 -9 10 0 6 7 10 16 10 8 0 12 -4 9 -10z m1335 -19 c0 -10 -7 -24
-15 -31 -12 -10 -16 -9 -21 4 -3 9 -4 23 0 31 8 21 36 19 36 -4z m-1500 -101
c0 -5 7 -10 15 -10 8 0 15 -4 15 -10 0 -11 -11 -13 -34 -4 -17 7 -22 34 -6 34
6 0 10 -4 10 -10z m70 -20 c0 -5 -2 -10 -4 -10 -3 0 -8 5 -11 10 -3 6 -1 10 4
10 6 0 11 -4 11 -10z m4446 -103 c1 -20 -2 -35 -5 -32 -4 2 -13 0 -21 -5 -15
-9 -70 23 -70 41 0 6 11 21 25 35 24 24 28 25 48 11 15 -10 22 -25 23 -50z
m-8335 32 c9 -18 7 -25 -9 -41 -35 -35 -85 -1 -62 43 14 26 56 25 71 -2z
m1317 -103 c93 -32 128 -54 184 -114 54 -58 87 -140 91 -225 l2 -62 -141 -3
-141 -3 -6 55 c-12 114 -64 157 -196 159 -106 2 -166 -27 -201 -98 l-25 -50 3
-315 c3 -302 4 -317 25 -360 32 -64 73 -85 167 -85 88 1 150 22 198 68 l32 31
0 103 0 103 -100 -7 -101 -6 3 113 3 114 45 2 c25 1 134 5 243 8 l197 5 0
-354 0 -354 -32 -5 c-104 -16 -129 -14 -137 8 -5 11 -16 38 -25 60 l-16 38
-57 -53 c-126 -115 -302 -153 -477 -103 -100 28 -175 90 -219 179 -41 81 -49
176 -45 555 3 337 4 346 27 404 65 161 214 229 486 222 119 -3 151 -8 213 -30z
m3492 -17 c130 -21 241 -96 286 -194 27 -58 49 -182 40 -219 l-6 -26 -144 0
-144 0 -4 75 c-3 66 -7 77 -33 105 -60 62 -195 76 -292 29 -70 -34 -73 -49
-73 -338 0 -299 5 -323 85 -364 71 -36 199 -33 257 7 42 28 61 68 62 130 l1
49 143 -6 c79 -3 146 -8 149 -11 13 -13 -14 -185 -36 -227 -73 -141 -217 -198
-472 -186 -266 13 -415 100 -469 273 -18 60 -20 93 -20 343 0 298 4 330 56
413 41 64 135 118 249 143 74 16 277 19 365 4z m-2287 -211 c4 -116 7 -280 7
-365 l0 -153 75 0 75 0 0 -105 0 -105 -75 0 -75 0 0 -125 0 -124 -32 -5 c-18
-3 -79 -8 -135 -11 l-103 -7 0 121 0 121 -34 0 c-18 0 -89 -4 -157 -9 -68 -5
-172 -13 -231 -16 l-108 -7 0 130 0 131 86 153 c136 241 295 520 316 556 l20
32 182 0 183 0 6 -212z m4733 197 c107 -23 158 -48 219 -108 72 -73 85 -117
85 -302 0 -95 -5 -158 -15 -191 -47 -159 -190 -256 -384 -258 -47 -1 -143 3
-213 8 l-128 8 0 -222 0 -223 -44 6 c-24 4 -93 12 -155 19 l-111 12 0 623 0
623 63 1 c34 1 150 5 257 9 324 11 348 11 426 -5z m-3576 -36 c0 -24 -8 -52
-19 -67 -10 -15 -59 -97 -108 -182 -49 -85 -149 -256 -221 -380 -73 -123 -132
-229 -132 -234 0 -5 103 -6 250 -1 l250 7 0 -116 0 -116 -142 0 c-79 0 -278
-7 -443 -15 -165 -8 -308 -15 -317 -15 -15 0 -18 9 -18 49 0 37 9 64 38 117
52 93 275 478 371 639 l78 130 -252 3 -252 2 -2 110 -2 110 461 0 460 0 0 -41z
m1910 -387 c0 -413 0 -418 23 -462 30 -61 84 -90 181 -97 64 -5 81 -3 121 17
85 41 85 37 85 533 l0 427 155 0 155 0 0 -447 c0 -484 -4 -521 -53 -606 -29
-48 -86 -99 -133 -118 -136 -53 -404 -50 -569 6 -115 40 -196 113 -237 214
-22 55 -23 65 -26 504 l-3 447 150 0 151 0 0 -418z m2460 183 c7 -8 22 -15 34
-15 11 0 27 -4 35 -9 11 -7 9 -10 -8 -16 -13 -4 -25 -4 -28 -1 -3 3 -19 -2
-34 -11 -28 -17 -30 -16 -50 4 -20 20 -20 21 -3 42 22 25 37 27 54 6z m-7703
-221 c-9 -9 -28 6 -21 18 4 6 10 6 17 -1 6 -6 8 -13 4 -17z m7608 -934 c-3 -5
-12 -10 -18 -10 -7 0 -6 4 3 10 19 12 23 12 15 0z m-3383 -30 c122 -37 214
-125 255 -244 16 -44 18 -88 18 -341 0 -295 -5 -343 -42 -418 -12 -23 -17 -26
-34 -16 -11 6 -18 13 -15 16 3 3 12 1 20 -6 11 -9 15 -8 20 5 10 27 7 38 -7
25 -19 -15 -28 -3 -21 28 4 21 1 19 -16 -11 -24 -45 -58 -67 -71 -47 -6 10 -9
6 -10 -13 -2 -44 -3 -48 -14 -50 -5 -2 -11 9 -13 25 -2 19 -9 27 -22 27 -10 0
-22 -4 -25 -10 -3 -5 -11 -10 -17 -10 -6 0 -3 9 7 20 10 11 26 20 37 20 26 0
22 20 -4 21 -22 0 -22 1 -5 12 52 33 54 38 15 31 -34 -6 -38 -4 -38 15 0 13 5
19 14 15 8 -3 17 0 22 7 5 9 2 10 -9 6 -12 -4 -17 -1 -18 11 0 9 -7 -2 -16
-26 -19 -55 -25 -50 -11 8 6 29 8 148 5 327 -4 249 -7 286 -23 320 -28 56 -75
83 -143 83 -72 0 -119 -24 -145 -76 -20 -37 -21 -54 -20 -359 2 -343 3 -381
13 -368 3 4 22 -8 42 -28 l36 -35 -23 -21 c-14 -12 -27 -17 -35 -12 -10 6 -6
11 14 18 15 6 27 12 27 14 0 4 -43 2 -83 -2 -5 -1 -5 -5 -2 -11 4 -6 -8 -10
-29 -10 -35 0 -63 -19 -29 -21 13 0 11 -3 -7 -10 -14 -6 -38 -8 -54 -5 -24 5
-27 4 -16 -9 7 -8 19 -15 27 -15 7 0 16 -7 19 -15 4 -10 13 -13 24 -10 10 3
22 0 26 -6 5 -8 3 -9 -6 -4 -7 4 -16 2 -20 -5 -12 -19 -145 113 -136 135 3 9
2 13 -4 10 -15 -10 -49 119 -61 237 -15 140 -6 411 15 491 24 86 58 147 113
199 88 82 157 106 309 107 75 1 119 -4 166 -19z m-4200 -25 c30 -3 78 -26 78
-36 0 -5 -15 0 -32 11 -18 11 -37 20 -43 20 -5 0 9 -11 33 -25 24 -13 51 -24
60 -23 38 3 53 -2 50 -18 -2 -10 4 -19 12 -21 13 -4 13 -3 0 6 -19 13 0 14 20
1 13 -9 13 -10 0 -10 -13 0 -13 -1 0 -10 34 -22 -7 -7 -78 28 -89 44 -157 86
-167 103 -4 6 4 3 18 -6 14 -9 36 -18 49 -20z m7483 25 c17 -7 24 -7 20 0 -3
6 -2 10 4 10 51 0 -28 -60 -170 -130 -68 -33 -82 -36 -123 -30 -25 4 -50 10
-54 14 -4 4 9 5 28 2 80 -13 85 -12 82 10 -2 17 4 23 30 29 18 4 27 9 21 12
-22 8 -15 19 22 33 20 8 30 17 24 20 -7 5 -5 9 6 13 9 4 13 3 10 -3 -9 -14 8
-12 30 4 10 7 28 11 39 9 17 -4 18 -3 6 6 -19 13 -9 14 25 1z m-4053 -527 l3
-528 30 -1 c81 -3 75 3 75 -74 l0 -70 -217 0 c-120 0 -228 -3 -240 -6 -22 -6
-23 -4 -23 74 l0 81 56 3 56 3 -2 380 c0 208 -2 380 -4 382 -1 2 -36 -8 -76
-22 -40 -14 -77 -25 -82 -25 -4 0 -8 35 -8 78 l0 78 88 47 c49 27 110 66 138
87 47 37 52 38 126 39 l78 1 2 -527z m-1037 486 c-125 -10 -439 -43 -595 -64
-196 -27 -192 -27 -135 -11 28 7 42 14 33 15 -9 0 -20 6 -24 12 -4 8 7 10 39
8 25 -2 43 -1 39 3 -4 4 -25 8 -47 10 -22 2 91 9 250 16 160 8 297 15 305 17
8 1 67 3 130 2 l115 0 -110 -8z m3020 -9 c72 -6 159 -20 195 -30 36 -11 81
-24 100 -30 33 -9 31 -10 -15 -5 -27 2 -81 9 -120 15 -38 6 -108 15 -155 20
-47 5 -150 16 -230 24 -80 9 -174 18 -210 20 -36 2 18 2 120 0 102 -2 244 -8
315 -14z m1892 -36 c-3 -3 -12 -4 -19 -1 -8 3 -5 6 6 6 11 1 17 -2 13 -5z
m-5720 -30 c-3 -3 -12 -4 -19 -1 -8 3 -5 6 6 6 11 1 17 -2 13 -5z m4190 -10
c-3 -3 -12 -4 -19 -1 -8 3 -5 6 6 6 11 1 17 -2 13 -5z m-5497 -20 c0 -1 -19
-2 -42 -2 -29 0 -37 3 -24 8 18 6 66 2 66 -6z m1295 5 c-22 -4 -51 -8 -65 -7
-23 0 -22 1 5 8 17 4 46 8 65 8 l35 0 -40 -9z m4302 5 c-3 -3 -12 -4 -19 -1
-8 3 -5 6 6 6 11 1 17 -2 13 -5z m1629 -17 c-11 -7 -28 -20 -38 -30 -10 -10
-24 -15 -30 -11 -6 4 -8 3 -5 -3 8 -13 -28 -44 -75 -66 -24 -11 -39 -13 -44
-6 -3 6 -4 12 -3 14 9 7 204 115 209 114 3 0 -4 -6 -14 -12z m-6029 -3 c-3 -3
-12 -4 -19 -1 -8 3 -5 6 6 6 11 1 17 -2 13 -5z m-1347 -160 c0 -2 -9 0 -20 6
-11 6 -20 13 -20 16 0 2 9 0 20 -6 11 -6 20 -13 20 -16z m344 -129 c19 -47 38
-102 41 -122 4 -21 13 -51 20 -68 32 -74 45 -108 41 -112 -11 -11 -156 336
-156 372 0 36 21 9 54 -70z m6576 71 c0 -11 -33 -97 -97 -253 -3 -7 -10 -10
-16 -6 -6 4 -8 0 -4 -10 6 -17 -30 -113 -40 -104 -2 3 0 14 6 25 6 11 8 28 4
38 -4 11 -3 15 4 11 15 -9 22 14 12 34 -6 11 1 35 20 72 16 31 41 90 56 131
16 44 33 76 41 76 8 0 14 -6 14 -14z m-4520 -85 c0 -4 8 -7 18 -8 28 -3 85
-30 112 -55 14 -13 21 -20 16 -15 -18 13 -29 7 -16 -8 11 -13 10 -14 -4 -9 -9
3 -16 1 -16 -5 0 -15 58 -43 73 -35 9 5 9 4 1 -5 -9 -10 -19 -9 -44 6 -18 10
-43 24 -55 31 -27 14 -115 102 -115 113 0 5 7 6 15 3 8 -4 15 -9 15 -13z
m2430 -1 c-6 -11 -15 -20 -20 -20 -6 0 -10 -6 -10 -14 0 -13 -18 -30 -81 -78
-27 -21 -43 -23 -34 -5 4 6 -2 2 -12 -10 -15 -18 -79 -53 -98 -53 -2 0 5 18
16 40 26 49 74 88 159 128 79 38 95 40 80 12z m470 -121 c-20 -39 -39 -47 -48
-19 -3 7 0 10 7 6 6 -4 11 -1 11 8 0 8 6 16 13 19 6 2 1 2 -13 0 -36 -6 -43
-17 -29 -46 15 -33 -2 -59 -35 -53 -11 2 -15 1 -8 -1 20 -7 9 -26 -23 -36 -19
-7 -34 -6 -47 2 -21 13 -93 0 -112 -20 -11 -12 -6 -11 39 7 10 4 15 0 14 -12
0 -11 -3 -14 -5 -7 -3 7 -12 9 -20 6 -13 -5 -13 -7 -3 -14 8 -4 10 -11 7 -15
-4 -3 -14 1 -24 10 -9 10 -24 14 -35 11 -47 -15 -11 9 85 56 97 49 105 51 121
36 9 -10 22 -17 28 -17 7 0 4 7 -6 14 -10 8 -14 17 -8 20 5 3 11 0 14 -6 2 -7
8 -9 13 -5 5 5 0 16 -13 26 -16 14 -19 21 -10 30 8 8 7 11 -3 12 -8 1 12 7 45
14 33 7 61 13 63 14 1 0 -7 -17 -18 -40z m-3373 -12 c9 -18 23 -38 32 -45 14
-11 13 -12 -4 -3 -11 5 -31 29 -43 52 -13 23 -19 38 -13 35 6 -4 19 -22 28
-39z m3198 13 l-20 -9 20 -1 c14 -1 7 -8 -23 -22 -24 -11 -42 -22 -39 -24 3
-3 24 4 47 16 26 13 46 18 51 13 6 -6 -7 -15 -33 -24 -24 -7 -61 -23 -83 -35
-22 -12 -75 -40 -117 -63 -43 -22 -78 -36 -78 -30 0 6 -7 8 -16 5 -9 -3 -12
-2 -9 5 4 6 13 8 21 5 18 -7 44 3 44 16 0 6 -11 7 -27 3 -27 -6 -27 -5 -11 11
16 17 18 17 36 1 18 -17 20 -16 43 3 l24 21 -27 -17 c-18 -10 -28 -12 -28 -5
0 6 7 14 15 17 12 5 13 10 4 20 -9 11 -7 14 12 14 13 1 35 7 48 14 18 10 20
14 8 19 -8 3 -26 3 -39 1 -21 -5 -21 -4 -5 6 10 7 28 13 40 15 12 2 47 10 77
18 62 17 96 20 65 7z m60 0 c3 -5 -3 -10 -15 -10 -12 0 -18 5 -15 10 3 6 10
10 15 10 5 0 12 -4 15 -10z m-3070 -10 c7 -12 -19 -12 -55 0 -22 7 -21 8 12 9
20 1 40 -3 43 -9z m175 -42 l31 -13 -52 -2 c-28 -1 -59 2 -68 8 -12 7 -4 9 29
5 34 -4 29 -1 -22 11 -38 9 -68 19 -68 24 0 8 104 -14 150 -33z m-161 6 c10
-9 -45 -3 -59 6 -11 7 -5 8 20 4 19 -4 37 -8 39 -10z m51 -3 c0 -16 -28 -33
-35 -21 -3 5 1 10 10 10 9 0 13 5 10 10 -3 6 -1 10 4 10 6 0 11 -4 11 -9z
m2781 -15 c-13 -5 -29 -5 -42 0 -17 8 -13 9 21 9 34 0 38 -1 21 -9z m-401 -6
c0 -5 -2 -10 -4 -10 -3 0 -8 5 -11 10 -3 6 -1 10 4 10 6 0 11 -4 11 -10z m347
-20 c1 -11 -4 -20 -10 -20 -7 0 -12 11 -12 24 0 28 20 24 22 -4z m-2671 -1 c3
-5 -1 -9 -8 -9 -9 0 -9 -3 2 -10 10 -7 11 -10 2 -10 -7 0 -15 7 -18 15 -4 8
-16 15 -28 15 -15 0 -17 3 -7 9 15 9 48 4 57 -10z m-235 -10 c9 -17 8 -20 -2
-14 -9 6 -10 3 -5 -11 4 -10 3 -15 -1 -10 -7 7 -13 56 -6 56 1 0 7 -10 14 -21z
m323 13 c3 -5 -8 -6 -25 -4 -16 2 -29 6 -29 8 0 8 49 4 54 -4z m-19 -22 c14
-5 24 -14 21 -19 -7 -10 -56 9 -56 22 0 9 3 9 35 -3z m82 -10 c-1 -21 -21 -27
-32 -10 -3 6 1 10 10 10 9 0 13 5 10 10 -3 6 -2 10 4 10 5 0 9 -9 8 -20z
m-230 4 c-3 -3 -12 -4 -19 -1 -8 3 -5 6 6 6 11 1 17 -2 13 -5z m2633 -9 c-7
-8 -17 -15 -23 -15 -6 0 -2 7 9 15 25 19 30 19 14 0z m-2575 -23 c-6 -7 -45 9
-45 18 0 4 11 3 24 -3 14 -7 23 -13 21 -15z m3005 18 c0 -5 -4 -10 -10 -10 -5
0 -10 -7 -10 -15 0 -8 -4 -15 -10 -15 -14 0 -13 23 2 38 15 15 28 16 28 2z
m-2919 -20 c31 -26 15 -26 -18 0 -14 11 -21 20 -15 20 5 0 20 -9 33 -20z
m2840 0 l24 -20 -29 6 c-22 5 -27 4 -21 -6 5 -8 3 -11 -4 -9 -7 3 -12 8 -12
12 1 4 1 14 1 22 0 20 13 19 41 -5z m-2755 -25 c-11 -8 -27 -15 -35 -14 -11 0
-12 2 -3 6 6 2 10 9 6 14 -3 5 7 9 23 9 27 -1 27 -1 9 -15z m2564 1 c0 -2 -7
-7 -16 -10 -8 -3 -12 -2 -9 4 6 10 25 14 25 6z m57 -2 c-3 -3 -12 -4 -19 -1
-8 3 -5 6 6 6 11 1 17 -2 13 -5z m147 -20 c3 -9 1 -23 -4 -32 -9 -14 -10 -12
-4 7 4 16 3 21 -5 16 -7 -4 -19 -4 -29 0 -14 5 -14 7 -2 15 22 14 37 12 44 -6z
m-3027 -10 c-3 -3 -12 -4 -19 -1 -8 3 -5 6 6 6 11 1 17 -2 13 -5z m387 -24
c-6 -6 -10 -3 -10 10 0 13 4 16 10 10 7 -7 7 -13 0 -20z m-197 4 c-3 -3 -12
-4 -19 -1 -8 3 -5 6 6 6 11 1 17 -2 13 -5z m2782 -50 c-6 -8 -17 -14 -23 -13
-7 0 -6 2 2 6 6 2 12 9 12 15 0 6 -7 7 -16 4 -14 -5 -15 -4 -4 9 10 12 16 13
26 4 11 -9 11 -15 3 -25z m-59 16 c0 -5 -5 -10 -11 -10 -5 0 -7 5 -4 10 3 6 8
10 11 10 2 0 4 -4 4 -10z m-230 -4 c0 -2 -8 -10 -17 -17 -16 -13 -17 -12 -4 4
13 16 21 21 21 13z m-2395 -24 c-3 -3 -11 0 -18 7 -9 10 -8 11 6 5 10 -3 15
-9 12 -12z m2355 -11 c0 -5 -7 -12 -16 -15 -14 -5 -15 -4 -4 9 14 17 20 19 20
6z m-2210 -11 c0 -5 -2 -10 -4 -10 -3 0 -8 5 -11 10 -3 6 -1 10 4 10 6 0 11
-4 11 -10z m2466 -16 c-30 -21 -42 -17 -15 5 13 11 26 17 29 14 3 -2 -4 -11
-14 -19z m-124 -16 c-5 -5 -18 -8 -28 -5 -15 4 -14 5 4 6 15 1 21 5 16 13 -5
7 -3 8 5 3 8 -5 9 -11 3 -17z m-4852 -8 c0 -23 -25 -27 -33 -6 -7 16 1 26 20
26 7 0 13 -9 13 -20z m2531 -17 c13 -16 12 -17 -3 -4 -17 13 -22 21 -14 21 2
0 10 -8 17 -17z m3489 12 c0 -2 -10 -9 -22 -15 -22 -11 -22 -10 -4 4 21 17 26
19 26 11z m-1984 -62 c-11 -11 -17 4 -9 23 7 18 8 18 11 1 2 -10 1 -21 -2 -24z
m1859 -7 c-44 -24 -84 -41 -89 -38 -5 3 7 12 27 20 20 8 34 18 31 23 -3 5 1 7
8 4 7 -3 27 4 43 14 17 11 37 20 45 20 8 0 -21 -19 -65 -43z m-3812 -3 c-7 -2
-19 -2 -25 0 -7 3 -2 5 12 5 14 0 19 -2 13 -5z m1878 -13 c-13 -11 -28 -20
-35 -20 -6 0 3 9 19 19 39 25 46 25 16 1z m2389 16 c0 -2 -7 -7 -16 -10 -8 -3
-12 -2 -9 4 6 10 25 14 25 6z m-4354 -21 c-10 -8 -24 -11 -30 -8 -6 4 0 10 14
14 36 10 37 10 16 -6z m484 -1 c0 -2 -12 -4 -27 -4 -21 0 -24 3 -14 9 13 8 41
5 41 -5z m1720 -3 c0 -15 -19 -23 -38 -16 -14 5 -14 7 -2 15 19 12 40 13 40 1z
m893 -3 c-2 -5 1 -8 8 -8 7 0 10 -2 7 -5 -2 -3 -24 1 -49 9 l-44 14 41 -2 c23
0 40 -4 37 -8z m-3047 -20 c2 -14 -2 -15 -28 -6 -22 8 -26 13 -16 19 19 13 41
7 44 -13z m1831 6 c-3 -3 -12 -4 -19 -1 -8 3 -5 6 6 6 11 1 17 -2 13 -5z m93
2 c0 -2 -7 -7 -16 -10 -8 -3 -12 -2 -9 4 6 10 25 14 25 6z m183 -46 c-6 -7
-23 23 -23 40 0 8 6 4 13 -10 8 -14 12 -27 10 -30z m896 36 c21 -12 21 -14 6
-20 -10 -3 -20 -4 -23 -1 -3 3 1 5 9 5 8 1 3 7 -11 15 -14 8 -20 14 -15 14 6
0 21 -6 34 -13z m680 -13 c-13 -14 -11 -14 19 1 19 10 36 15 38 13 8 -8 -78
-48 -92 -43 -8 3 -13 1 -11 -5 3 -12 -6 -17 -231 -134 -336 -175 -858 -434
-1002 -497 -25 -11 -97 -43 -160 -73 -191 -88 -457 -205 -595 -260 l-130 -52
-60 23 c-243 94 -621 262 -1120 499 -140 66 -595 294 -610 305 -5 4 -79 42
-163 85 -84 43 -150 80 -148 83 3 2 18 -3 34 -11 16 -8 48 -13 70 -12 22 1 46
-2 54 -7 9 -6 5 -8 -12 -4 -14 3 -19 3 -12 0 6 -3 10 -9 7 -14 -3 -5 8 -3 24
3 17 6 28 15 25 19 -3 4 6 3 20 -3 13 -6 27 -20 29 -30 3 -11 13 -19 22 -19 9
0 13 4 10 10 -3 6 1 7 10 3 12 -4 13 -8 5 -13 -14 -9 11 -20 44 -20 12 0 107
-42 212 -94 312 -154 712 -343 979 -464 55 -24 207 -88 339 -142 l239 -98 55
25 c31 14 115 49 187 78 218 90 333 140 490 213 83 38 215 100 294 136 80 37
335 162 568 277 233 115 434 211 447 215 13 3 27 1 30 -5 4 -6 12 -11 17 -11
6 0 8 4 5 9 -4 5 4 7 16 3 14 -3 19 -1 14 6 -4 6 5 12 21 15 16 2 30 5 32 6 2
0 -3 -6 -10 -16z m324 -22 c-33 -22 -86 -53 -117 -69 -31 -16 -53 -32 -49 -37
5 -4 2 -5 -6 0 -7 4 -16 3 -20 -2 -3 -6 -25 -20 -49 -32 -47 -24 -85 -58 -88
-78 -1 -7 2 -13 8 -13 6 0 7 7 4 16 -4 11 -1 14 12 10 9 -2 40 6 67 20 28 13
39 22 25 19 -14 -3 -19 -2 -12 1 6 3 10 10 6 15 -7 13 10 11 23 -2 8 -8 20 -6
44 6 19 10 30 13 24 7 -26 -28 -781 -411 -1115 -567 -91 -42 -192 -90 -225
-107 -32 -16 -79 -31 -104 -33 -33 -2 -40 0 -28 7 10 5 26 6 37 3 14 -5 18 -2
15 8 -4 8 4 18 17 25 13 6 17 11 10 11 -7 1 -22 -4 -34 -10 -11 -6 -22 -9 -24
-6 -3 2 75 46 173 97 98 51 252 132 343 180 162 86 512 267 620 321 30 15 114
56 185 92 72 35 168 85 215 111 104 56 125 59 43 7z m-1861 -4 c-35 -37 -107
-87 -124 -86 -10 0 -10 2 1 6 11 5 11 7 0 15 -11 7 -10 8 4 4 28 -9 56 10 50
34 -4 14 0 20 11 20 10 0 14 -5 11 -11 -4 -6 2 -5 14 3 12 7 19 18 17 25 -6
15 2 22 25 20 17 -1 16 -4 -9 -30z m2013 13 c-7 -11 -85 -53 -85 -46 0 4 81
56 88 56 2 0 0 -5 -3 -10z m-3620 -20 c3 -6 -1 -7 -9 -4 -18 7 -21 14 -7 14 6
0 13 -4 16 -10z m-1495 -65 c0 -3 -27 8 -60 25 -33 17 -60 33 -60 35 0 3 27
-8 60 -25 33 -17 60 -33 60 -35z m1105 55 c25 -11 -1 -11 -35 0 -20 6 -21 8
-5 8 11 0 29 -3 40 -8z m1495 6 c0 -3 -4 -8 -10 -11 -5 -3 -10 -1 -10 4 0 6 5
11 10 11 6 0 10 -2 10 -4z m-2524 -22 c18 -14 18 -14 -6 -3 -31 14 -36 19 -24
19 6 0 19 -7 30 -16z m1261 10 c-3 -3 -12 -4 -19 -1 -8 3 -5 6 6 6 11 1 17 -2
13 -5z m-94 -11 c-13 -2 -33 -2 -45 0 -13 2 -3 4 22 4 25 0 35 -2 23 -4z
m3777 -7 c0 -2 -7 -7 -16 -10 -8 -3 -12 -2 -9 4 6 10 25 14 25 6z m-4887 -93
c61 -32 117 -58 122 -58 6 0 15 -6 21 -14 7 -8 16 -11 24 -6 9 6 11 4 5 -5 -6
-9 -1 -10 16 -5 19 5 21 4 9 -4 -17 -12 -1 -15 16 -3 15 9 14 41 -1 36 -17 -7
-67 14 -61 25 7 11 -22 23 -35 15 -5 -3 -9 -1 -9 4 0 5 -10 13 -22 16 -21 7
-22 8 -4 15 13 5 37 -2 75 -22 31 -16 128 -66 216 -112 88 -45 255 -131 370
-190 116 -59 215 -111 220 -115 6 -5 92 -49 193 -100 100 -50 180 -95 177
-100 -3 -6 0 -7 8 -4 8 3 20 -2 27 -11 11 -13 9 -15 -11 -16 -17 0 -20 -2 -9
-7 8 -4 16 -12 17 -19 2 -7 -27 0 -70 19 -95 40 -717 344 -932 456 -473 246
-502 262 -480 262 3 0 56 -26 118 -57z m4797 47 c-37 -25 -50 -31 -50 -20 0 6
10 15 23 20 30 12 45 12 27 0z m-4720 -15 c0 -2 -6 -5 -13 -8 -8 -3 -14 1 -14
8 0 7 6 11 14 8 7 -3 13 -6 13 -8z m2740 5 c-8 -5 -22 -9 -30 -9 -10 0 -8 3 5
9 27 12 43 12 25 0z m-243 -26 c-3 -3 -12 -4 -19 -1 -8 3 -5 6 6 6 11 1 17 -2
13 -5z m151 -1 c-10 -2 -28 -2 -40 0 -13 2 -5 4 17 4 22 1 32 -1 23 -4z
m-3200 -162 c4 -25 -11 -41 -39 -41 -20 0 -30 21 -22 50 8 31 57 24 61 -9z
m5662 -36 c0 -8 -7 -15 -15 -15 -16 0 -20 12 -8 23 11 12 23 8 23 -8z m-4810
-345 c0 -5 -4 -10 -10 -10 -5 0 -10 5 -10 10 0 6 5 10 10 10 6 0 10 -4 10 -10z
m-507 -105 c1 -5 -6 -11 -15 -13 -11 -2 -18 3 -18 13 0 17 30 18 33 0z m1537
-19 c0 -3 -4 -8 -10 -11 -5 -3 -10 -1 -10 4 0 6 5 11 10 11 6 0 10 -2 10 -4z
m1810 -31 c-14 -8 -29 -14 -35 -14 -5 0 1 6 15 14 14 8 30 14 35 14 6 0 -1 -6
-15 -14z"/>
<path d="M4000 8943 c0 -5 4 -15 10 -23 11 -18 25 -7 17 15 -6 15 -27 21 -27
8z"/>
<path d="M3690 8620 c0 -5 5 -10 10 -10 6 0 10 5 10 10 0 6 -4 10 -10 10 -5 0
-10 -4 -10 -10z"/>
<path d="M3685 8540 c3 -5 8 -10 11 -10 2 0 4 5 4 10 0 6 -5 10 -11 10 -5 0
-7 -4 -4 -10z"/>
<path d="M3440 7986 c0 -8 -7 -22 -16 -31 -9 -9 -14 -19 -10 -22 3 -4 12 -1
18 5 9 9 17 8 32 -6 20 -17 20 -17 4 9 -11 17 -13 30 -6 42 7 13 5 17 -7 17
-8 0 -15 -6 -15 -14z"/>
<path d="M6290 8602 c1 -14 27 -41 33 -35 13 13 7 31 -13 36 -11 3 -20 2 -20
-1z"/>
<path d="M6465 8320 c3 -5 8 -10 11 -10 2 0 4 5 4 10 0 6 -5 10 -11 10 -5 0
-7 -4 -4 -10z"/>
<path d="M6530 8274 c0 -17 17 -36 24 -26 3 5 -1 15 -9 22 -8 7 -15 9 -15 4z"/>
<path d="M6680 7630 c0 -5 4 -10 9 -10 6 0 13 5 16 10 3 6 -1 10 -9 10 -9 0
-16 -4 -16 -10z"/>
<path d="M2370 8934 c-24 -9 -29 -13 -14 -13 11 -1 29 6 40 14 22 17 20 17
-26 -1z"/>
<path d="M4773 8585 c4 -11 2 -26 -2 -34 -8 -12 -12 -12 -25 -2 -8 7 -12 19
-9 27 10 28 -17 13 -33 -17 -21 -41 -11 -73 27 -89 27 -11 33 -11 57 7 37 27
38 88 3 111 -22 15 -23 15 -18 -3z"/>
<path d="M5689 8573 c-1 -5 0 -18 1 -31 1 -12 -5 -25 -14 -28 -14 -5 -14 -9
-1 -34 19 -36 51 -44 76 -19 26 26 24 71 -4 97 -23 21 -56 30 -58 15z"/>
<path d="M5200 8290 c0 -5 5 -10 10 -10 6 0 10 5 10 10 0 6 -4 10 -10 10 -5 0
-10 -4 -10 -10z"/>
<path d="M5280 8245 c0 -8 4 -15 10 -15 5 0 7 7 4 15 -4 8 -8 15 -10 15 -2 0
-4 -7 -4 -15z"/>
<path d="M4930 8170 c0 -5 4 -10 9 -10 6 0 13 5 16 10 3 6 -1 10 -9 10 -9 0
-16 -4 -16 -10z"/>
<path d="M4880 8150 c0 -5 6 -10 14 -10 8 0 18 5 21 10 3 6 -3 10 -14 10 -12
0 -21 -4 -21 -10z"/>
<path d="M8115 8439 c-4 -6 -5 -12 -2 -15 2 -3 7 2 10 11 7 17 1 20 -8 4z"/>
<path d="M8085 8384 c-9 -15 -12 -23 -6 -20 11 7 35 46 28 46 -3 0 -12 -12
-22 -26z"/>
<path d="M3745 7520 c-3 -5 -1 -10 4 -10 6 0 11 5 11 10 0 6 -2 10 -4 10 -3 0
-8 -4 -11 -10z"/>
<path d="M3709 7483 c-11 -15 -11 -16 1 -5 33 29 31 9 -3 -26 -20 -21 -37 -44
-37 -52 1 -8 21 7 46 34 34 37 42 51 32 57 -19 12 -24 11 -39 -8z"/>
<path d="M4055 7470 c3 -5 13 -10 21 -10 8 0 12 5 9 10 -3 6 -13 10 -21 10 -8
0 -12 -4 -9 -10z"/>
<path d="M4025 7460 c3 -5 11 -10 16 -10 6 0 7 5 4 10 -3 6 -11 10 -16 10 -6
0 -7 -4 -4 -10z"/>
<path d="M4280 7386 c0 -2 7 -6 15 -10 8 -3 15 -1 15 4 0 6 -7 10 -15 10 -8 0
-15 -2 -15 -4z"/>
<path d="M2687 7092 c-3 -4 1 -13 9 -19 7 -7 15 -9 17 -5 3 4 -1 13 -9 19 -7
7 -15 9 -17 5z"/>
<path d="M2643 7055 c-7 -8 -21 -18 -30 -24 -10 -5 -15 -12 -11 -16 7 -8 68
34 68 47 0 12 -14 9 -27 -7z"/>
<path d="M5013 7463 c-18 -2 -33 -9 -33 -14 0 -11 50 -1 65 12 5 5 7 8 5 7 -3
0 -20 -3 -37 -5z"/>
<path d="M5091 7424 c0 -11 3 -14 6 -6 3 7 2 16 -1 19 -3 4 -6 -2 -5 -13z"/>
<path d="M5130 7410 c0 -5 5 -10 10 -10 6 0 10 5 10 10 0 6 -4 10 -10 10 -5 0
-10 -4 -10 -10z"/>
<path d="M5460 7339 c0 -5 5 -7 10 -4 6 3 10 8 10 11 0 2 -4 4 -10 4 -5 0 -10
-5 -10 -11z"/>
<path d="M5431 7314 c0 -11 3 -14 6 -6 3 7 2 16 -1 19 -3 4 -6 -2 -5 -13z"/>
<path d="M5770 7240 c0 -5 5 -10 10 -10 6 0 10 5 10 10 0 6 -4 10 -10 10 -5 0
-10 -4 -10 -10z"/>
<path d="M5705 7230 c-3 -5 1 -10 10 -10 9 0 13 5 10 10 -3 6 -8 10 -10 10 -2
0 -7 -4 -10 -10z"/>
<path d="M3875 7450 c-3 -5 1 -10 10 -10 9 0 13 5 10 10 -3 6 -8 10 -10 10 -2
0 -7 -4 -10 -10z"/>
<path d="M6080 7090 c-8 -5 -10 -10 -5 -10 6 0 17 5 25 10 8 5 11 10 5 10 -5
0 -17 -5 -25 -10z"/>
<path d="M3761 7153 c7 -10 15 -20 16 -22 2 -2 3 5 3 17 0 14 -6 22 -16 22
-14 0 -15 -3 -3 -17z"/>
<path d="M3668 7153 c6 -2 18 -2 25 0 6 3 1 5 -13 5 -14 0 -19 -2 -12 -5z"/>
<path d="M3587 7074 c-16 -9 -27 -18 -24 -20 3 -3 20 4 38 15 39 24 28 28 -14
5z"/>
<path d="M3613 7044 c-15 -15 -19 -20 -9 -13 17 12 19 12 11 -1 -4 -8 -15 -24
-24 -34 -9 -11 -10 -16 -3 -12 15 9 16 -6 0 -22 -7 -7 -8 -12 -3 -11 12 1 95
96 95 109 0 19 -39 10 -67 -16z"/>
<path d="M3694 7018 c-14 -28 -15 -31 -2 -20 14 11 31 52 22 52 -2 0 -11 -15
-20 -32z"/>
<path d="M3511 6983 c-23 -25 -39 -48 -37 -51 3 -2 20 13 38 34 18 20 39 43
46 51 7 7 9 13 4 13 -6 0 -29 -21 -51 -47z"/>
<path d="M4258 6903 c7 -3 16 -2 19 1 4 3 -2 6 -13 5 -11 0 -14 -3 -6 -6z"/>
<path d="M4865 6810 c-3 -5 -3 -10 1 -10 4 0 -1 -10 -12 -22 -10 -12 -13 -18
-6 -14 8 5 19 1 28 -10 14 -18 15 -18 5 2 -6 12 -8 31 -6 43 4 23 0 27 -10 11z"/>
<path d="M4898 6783 c7 -3 16 -2 19 1 4 3 -2 6 -13 5 -11 0 -14 -3 -6 -6z"/>
<path d="M5195 6650 c-3 -6 1 -7 9 -4 18 7 21 14 7 14 -6 0 -13 -4 -16 -10z"/>
<path d="M5270 6649 c0 -5 5 -7 10 -4 6 3 10 8 10 11 0 2 -4 4 -10 4 -5 0 -10
-5 -10 -11z"/>
<path d="M2445 6583 l-18 -28 27 24 c28 26 31 31 17 31 -5 0 -17 -12 -26 -27z"/>
<path d="M2123 6070 c6 -8 12 -16 13 -18 1 -1 4 5 6 15 4 13 0 19 -13 19 -14
0 -16 -3 -6 -16z"/>
<path d="M2020 5475 c-7 -8 -8 -15 -2 -15 5 0 15 7 22 15 7 8 8 15 2 15 -5 0
-15 -7 -22 -15z"/>
<path d="M6460 5970 c0 -5 5 -10 10 -10 6 0 10 5 10 10 0 6 -4 10 -10 10 -5 0
-10 -4 -10 -10z"/>
<path d="M6473 5946 c-13 -6 -23 -14 -23 -19 0 -5 10 -5 23 -1 12 4 28 7 35 7
14 0 11 20 -4 23 -5 1 -19 -4 -31 -10z"/>
<path d="M6487 5883 c9 -13 19 -23 23 -23 4 0 7 10 6 23 -1 16 -7 23 -22 23
-20 0 -21 -1 -7 -23z"/>
<path d="M6610 5860 c0 -11 4 -20 8 -20 4 0 8 9 9 20 1 11 -2 20 -8 20 -5 0
-9 -9 -9 -20z"/>
<path d="M6325 5859 c-4 -6 -5 -12 -2 -15 2 -3 7 2 10 11 7 17 1 20 -8 4z"/>
<path d="M6550 5858 c0 -9 5 -20 10 -23 6 -3 10 -15 10 -26 0 -11 5 -17 10
-14 6 4 8 11 5 16 -4 5 -1 9 4 9 18 0 12 20 -6 27 -10 4 -21 11 -25 17 -5 7
-8 4 -8 -6z"/>
<path d="M6618 5823 c-27 -6 -23 -34 4 -30 22 4 35 22 21 29 -4 3 -16 3 -25 1z"/>
<path d="M6465 5790 c-3 -5 -1 -10 4 -10 6 0 11 5 11 10 0 6 -2 10 -4 10 -3 0
-8 -4 -11 -10z"/>
<path d="M6470 5729 c-13 -9 -13 -10 2 -6 9 3 19 1 22 -6 2 -7 5 -4 5 6 1 20
-7 21 -29 6z"/>
<path d="M6520 5691 c0 -5 7 -11 15 -15 8 -3 12 -12 9 -21 -3 -8 -1 -15 4 -15
20 0 23 19 5 40 -18 21 -33 26 -33 11z"/>
<path d="M6476 5655 c-9 -26 -7 -32 5 -12 6 10 9 21 6 23 -2 3 -7 -2 -11 -11z"/>
<path d="M6447 5589 c5 -20 18 -25 27 -11 2 4 -4 13 -14 19 -15 10 -17 9 -13
-8z"/>
<path d="M6430 5476 c0 -2 7 -6 15 -10 8 -3 15 -1 15 4 0 6 -7 10 -15 10 -8 0
-15 -2 -15 -4z"/>
<path d="M6390 5444 c0 -9 5 -12 13 -8 10 6 10 4 0 -7 -7 -7 -13 -18 -13 -23
0 -6 4 -5 9 3 7 10 11 5 16 -18 3 -17 10 -31 15 -31 4 0 4 17 -1 38 -5 20 -9
40 -9 43 0 15 -30 18 -30 3z"/>
<path d="M6360 5390 c0 -5 5 -10 10 -10 6 0 10 5 10 10 0 6 -4 10 -10 10 -5 0
-10 -4 -10 -10z"/>
<path d="M6304 5343 c-15 -15 -14 -17 1 -26 20 -11 35 1 16 12 -9 6 -10 11 -2
15 6 4 11 2 11 -3 0 -6 5 -11 10 -11 15 0 12 17 -5 24 -8 3 -22 -2 -31 -11z"/>
<path d="M6334 5306 c-3 -8 -13 -12 -25 -9 -10 3 -19 1 -19 -4 0 -11 38 -14
45 -3 3 4 14 6 25 3 24 -6 27 12 4 21 -22 8 -24 8 -30 -8z"/>
<path d="M6190 5280 c0 -5 5 -10 11 -10 5 0 7 5 4 10 -3 6 -8 10 -11 10 -2 0
-4 -4 -4 -10z"/>
<path d="M6237 5253 c-4 -3 -7 -11 -7 -17 0 -6 5 -5 12 2 6 6 9 14 7 17 -3 3
-9 2 -12 -2z"/>
<path d="M6147 5199 c7 -7 15 -10 18 -7 3 3 -2 9 -12 12 -14 6 -15 5 -6 -5z"/>
<path d="M6206 5195 c4 -8 10 -12 15 -9 11 6 2 24 -11 24 -5 0 -7 -7 -4 -15z"/>
<path d="M5700 5150 c0 -5 5 -10 10 -10 6 0 10 5 10 10 0 6 -4 10 -10 10 -5 0
-10 -4 -10 -10z"/>
<path d="M6025 5130 c3 -5 8 -10 11 -10 2 0 4 5 4 10 0 6 -5 10 -11 10 -5 0
-7 -4 -4 -10z"/>
<path d="M5520 5110 c-6 -11 -8 -20 -6 -20 3 0 10 9 16 20 6 11 8 20 6 20 -3
0 -10 -9 -16 -20z"/>
<path d="M5722 5108 c3 -26 39 -32 45 -8 4 12 3 13 -5 1 -12 -17 -33 -5 -25
14 3 8 0 15 -7 15 -6 0 -10 -10 -8 -22z"/>
<path d="M5969 5113 c-13 -16 -12 -17 4 -4 9 7 17 15 17 17 0 8 -8 3 -21 -13z"/>
<path d="M6046 5113 c-6 -14 -5 -15 5 -6 7 7 10 15 7 18 -3 3 -9 -2 -12 -12z"/>
<path d="M5637 5103 c-12 -12 -7 -22 8 -17 9 4 15 0 15 -10 0 -9 -5 -16 -12
-16 -6 0 -8 -3 -5 -6 4 -4 13 -2 20 5 8 6 22 9 31 5 9 -3 16 -2 16 4 0 5 -11
13 -25 16 -14 4 -25 11 -25 16 0 11 -13 13 -23 3z"/>
<path d="M5360 5081 c0 -6 5 -13 10 -16 6 -3 10 1 10 9 0 9 -4 16 -10 16 -5 0
-10 -4 -10 -9z"/>
<path d="M5970 5028 c0 -12 3 -18 7 -14 11 10 12 36 2 36 -5 0 -9 -10 -9 -22z"/>
<path d="M5450 5029 c0 -5 5 -7 10 -4 6 3 10 8 10 11 0 2 -4 4 -10 4 -5 0 -10
-5 -10 -11z"/>
<path d="M2920 5812 c0 -12 19 -26 26 -19 2 2 -2 10 -11 17 -9 8 -15 8 -15 2z"/>
<path d="M2535 5550 c3 -5 8 -10 11 -10 2 0 4 5 4 10 0 6 -5 10 -11 10 -5 0
-7 -4 -4 -10z"/>
<path d="M3290 5031 c0 -6 6 -11 14 -11 8 0 23 -3 33 -6 12 -5 15 -4 8 3 -15
16 -55 26 -55 14z"/>
<path d="M3268 5003 c7 -3 16 -2 19 1 4 3 -2 6 -13 5 -11 0 -14 -3 -6 -6z"/>
<path d="M3308 4993 c6 -2 18 -2 25 0 6 3 1 5 -13 5 -14 0 -19 -2 -12 -5z"/>
<path d="M4060 5760 c-18 -12 -2 -12 25 0 13 6 15 9 5 9 -8 0 -22 -4 -30 -9z"/>
<path d="M4188 5743 c7 -3 16 -2 19 1 4 3 -2 6 -13 5 -11 0 -14 -3 -6 -6z"/>
<path d="M4505 5690 c-3 -5 -1 -10 4 -10 6 0 11 5 11 10 0 6 -2 10 -4 10 -3 0
-8 -4 -11 -10z"/>
<path d="M4366 5663 c-11 -11 -6 -23 8 -23 8 0 17 4 20 9 7 10 -19 23 -28 14z"/>
<path d="M4300 5651 c0 -6 4 -13 10 -16 6 -3 7 1 4 9 -7 18 -14 21 -14 7z"/>
<path d="M4430 5649 c0 -5 5 -7 10 -4 6 3 10 8 10 11 0 2 -4 4 -10 4 -5 0 -10
-5 -10 -11z"/>
<path d="M4360 5516 c0 -2 8 -10 18 -17 15 -13 16 -12 3 4 -13 16 -21 21 -21
13z"/>
<path d="M4320 5501 c0 -10 19 -25 25 -20 1 2 -3 10 -11 17 -8 7 -14 8 -14 3z"/>
<path d="M4207 5458 c-16 -12 -15 -13 7 -13 15 0 22 5 19 13 -3 6 -6 12 -7 12
-1 0 -10 -6 -19 -12z"/>
<path d="M3962 5393 c-10 -34 -10 -36 3 -19 13 17 21 56 12 56 -2 0 -9 -17
-15 -37z"/>
<path d="M4012 5330 c-14 -22 -80 -28 -99 -9 -7 7 -12 6 -17 -6 -3 -9 -2 -13
3 -10 5 3 12 1 16 -5 3 -5 -2 -10 -12 -11 -10 0 -13 -3 -5 -6 6 -2 12 -21 12
-41 0 -28 3 -33 12 -24 7 7 18 12 26 12 9 0 6 -7 -9 -20 l-24 -20 40 16 c93
38 125 54 125 64 0 17 -29 23 -45 10 -15 -12 -35 -6 -35 11 0 5 6 9 14 9 19 0
25 11 17 32 -6 17 -7 16 -19 -2z m41 -66 c-12 -9 -48 -17 -80 -18 l-58 -2 40
12 c22 6 46 8 54 4 9 -5 20 -2 29 6 7 8 19 14 25 13 7 0 2 -7 -10 -15z m-56
-30 c-3 -3 -12 -4 -19 -1 -8 3 -5 6 6 6 11 1 17 -2 13 -5z"/>
<path d="M4071 5321 c-10 -7 -10 -10 -1 -16 6 -4 16 -3 22 3 13 13 -4 23 -21
13z"/>
<path d="M3891 5244 c0 -11 3 -14 6 -6 3 7 2 16 -1 19 -3 4 -6 -2 -5 -13z"/>
<path d="M3855 5220 c3 -5 8 -10 11 -10 2 0 4 5 4 10 0 6 -5 10 -11 10 -5 0
-7 -4 -4 -10z"/>
<path d="M3815 5210 c-19 -8 -19 -9 3 -9 12 -1 22 4 22 9 0 6 -1 10 -2 9 -2 0
-12 -4 -23 -9z"/>
<path d="M3670 5160 c8 -5 20 -10 25 -10 6 0 3 5 -5 10 -8 5 -19 10 -25 10 -5
0 -3 -5 5 -10z"/>
<path d="M4596 5675 c-9 -26 -7 -32 5 -12 6 10 9 21 6 23 -2 3 -7 -2 -11 -11z"/>
<path d="M4542 5638 c-7 -7 -12 -16 -12 -21 0 -5 7 -1 16 8 9 9 14 18 12 20
-2 3 -10 -1 -16 -7z"/>
<path d="M4476 5513 c-6 -14 -5 -15 5 -6 7 7 10 15 7 18 -3 3 -9 -2 -12 -12z"/>
<path d="M3448 5073 c12 -2 32 -2 45 0 12 2 2 4 -23 4 -25 0 -35 -2 -22 -4z"/>
<path d="M3608 5073 c6 -2 18 -2 25 0 6 3 1 5 -13 5 -14 0 -19 -2 -12 -5z"/>
<path d="M8638 5484 c28 -19 28 -34 1 -34 -11 0 -17 -5 -14 -10 4 -6 11 -8 16
-5 5 4 9 -2 10 -12 0 -10 6 -3 14 17 18 46 18 53 0 47 -8 -4 -17 -2 -20 3 -4
6 -11 10 -18 10 -6 0 -1 -7 11 -16z"/>
<path d="M8556 5462 c-2 -4 12 -6 32 -4 56 5 62 10 15 11 -23 1 -44 -3 -47 -7z"/>
<path d="M8576 5441 c-4 -5 0 -12 6 -15 7 -4 3 -4 -10 -2 -12 2 -20 0 -16 -5
7 -12 51 -11 59 1 3 6 1 10 -5 10 -6 0 -8 5 -5 10 3 6 -1 10 -9 10 -8 0 -17
-4 -20 -9z"/>
<path d="M8540 5395 c14 -7 27 -11 30 -9 6 7 -22 24 -40 23 -9 0 -5 -6 10 -14z"/>
<path d="M8603 5403 c-13 -2 -23 -9 -23 -14 0 -12 10 -11 40 6 25 15 23 16
-17 8z"/>
<path d="M3173 3869 c-72 -128 -203 -367 -203 -372 0 -3 285 15 288 17 1 2 1
115 0 251 l-3 248 -82 -144z"/>
<path d="M7827 4022 c-4 -5 -7 -96 -7 -203 l-2 -194 139 -3 c168 -4 194 1 238
39 40 35 46 58 48 182 1 103 -9 131 -60 164 -22 15 -55 19 -189 21 -92 2 -164
0 -167 -6z"/>
<path d="M5761 1974 c0 -11 3 -14 6 -6 3 7 2 16 -1 19 -3 4 -6 -2 -5 -13z"/>
<path d="M5650 1930 c0 -5 7 -10 16 -10 8 0 12 5 9 10 -3 6 -10 10 -16 10 -5
0 -9 -4 -9 -10z"/>
<path d="M5750 1919 c0 -5 5 -7 10 -4 6 3 10 8 10 11 0 2 -4 4 -10 4 -5 0 -10
-5 -10 -11z"/>
<path d="M5795 1890 c-3 -5 -1 -10 4 -10 6 0 11 5 11 10 0 6 -2 10 -4 10 -3 0
-8 -4 -11 -10z"/>
<path d="M5080 1820 c0 -5 7 -7 15 -4 8 4 15 8 15 10 0 2 -7 4 -15 4 -8 0 -15
-4 -15 -10z"/>
<path d="M5255 1810 c3 -5 13 -10 21 -10 8 0 12 5 9 10 -3 6 -13 10 -21 10 -8
0 -12 -4 -9 -10z"/>
<path d="M5060 1785 c0 -8 0 -18 0 -22 0 -12 49 -13 55 -2 4 5 -4 9 -15 9 -16
0 -20 5 -16 15 3 9 0 15 -9 15 -8 0 -15 -7 -15 -15z"/>
<path d="M5205 1780 c3 -5 8 -10 11 -10 2 0 4 5 4 10 0 6 -5 10 -11 10 -5 0
-7 -4 -4 -10z"/>
<path d="M5110 1740 c0 -5 4 -10 9 -10 6 0 13 5 16 10 3 6 -1 10 -9 10 -9 0
-16 -4 -16 -10z"/>
<path d="M1475 2730 c3 -5 11 -10 16 -10 6 0 7 5 4 10 -3 6 -11 10 -16 10 -6
0 -7 -4 -4 -10z"/>
<path d="M8790 2790 c0 -5 5 -10 11 -10 5 0 7 5 4 10 -3 6 -8 10 -11 10 -2 0
-4 -4 -4 -10z"/>
<path d="M8650 2700 c0 -5 5 -10 10 -10 6 0 10 5 10 10 0 6 -4 10 -10 10 -5 0
-10 -4 -10 -10z"/>
<path d="M4470 1728 c0 -47 13 -62 44 -54 15 4 26 2 26 -4 0 -5 5 -10 10 -10
6 0 10 16 10 35 0 19 -4 35 -10 35 -5 0 -10 -7 -10 -15 0 -8 -6 -15 -14 -15
-8 0 -21 -3 -30 -6 -10 -4 -16 -1 -16 8 0 7 14 19 31 25 37 14 30 33 -12 33
-26 0 -29 -3 -29 -32z"/>
<path d="M4615 1710 c-3 -6 1 -7 9 -4 18 7 21 14 7 14 -6 0 -13 -4 -16 -10z"/>
<path d="M4576 1683 c5 -5 12 -12 15 -16 3 -5 9 -2 12 7 5 12 0 16 -15 16 -12
0 -17 -3 -12 -7z"/>
<path d="M4523 1650 c2 -10 18 -15 48 -16 44 -1 44 -1 4 3 -22 3 -44 10 -48
16 -6 8 -7 7 -4 -3z"/>
<path d="M3987 2309 c7 -7 15 -10 18 -7 3 3 -2 9 -12 12 -14 6 -15 5 -6 -5z"/>
<path d="M6132 2260 l-23 -19 26 3 c14 1 28 6 33 11 4 4 1 4 -7 0 -11 -6 -13
-4 -8 8 8 21 7 21 -21 -3z"/>
<path d="M6120 2216 c4 -4 16 -4 26 2 16 9 14 10 -8 9 -15 -1 -23 -6 -18 -11z"/>
<path d="M6647 2139 c7 -7 15 -10 18 -7 3 3 -2 9 -12 12 -14 6 -15 5 -6 -5z"/>
<path d="M6535 2210 c-8 -13 5 -13 25 0 13 8 13 10 -2 10 -9 0 -20 -4 -23 -10z"/>
<path d="M6460 2150 c-12 -8 -12 -10 2 -15 9 -4 25 -2 35 5 16 9 15 10 -6 4
-16 -4 -21 -3 -17 5 9 13 6 14 -14 1z"/>
<path d="M3568 1773 c7 -3 16 -2 19 1 4 3 -2 6 -13 5 -11 0 -14 -3 -6 -6z"/>
<path d="M7105 1710 c-22 -11 -35 -19 -28 -20 6 0 20 -3 30 -6 15 -5 15 -4 3
5 -11 8 -6 11 28 17 23 3 39 10 36 15 -8 13 -24 11 -69 -11z"/>
<path d="M7045 1680 c3 -5 8 -10 11 -10 2 0 4 5 4 10 0 6 -5 10 -11 10 -5 0
-7 -4 -4 -10z"/>
<path d="M3100 1660 c8 -5 20 -10 25 -10 6 0 3 5 -5 10 -8 5 -19 10 -25 10 -5
0 -3 -5 5 -10z"/>
<path d="M3239 1616 c17 -10 20 -15 10 -18 -8 -3 0 -5 16 -5 17 0 39 -3 50 -6
11 -4 -2 4 -30 17 -52 26 -87 35 -46 12z"/>
<path d="M2940 1556 c0 -2 7 -7 16 -10 8 -3 12 -2 9 4 -6 10 -25 14 -25 6z"/>
<path d="M2258 1453 c7 -3 16 -2 19 1 4 3 -2 6 -13 5 -11 0 -14 -3 -6 -6z"/>
</g>
</svg>
